<?xml version="1.0" encoding="us-ascii" standalone="no"?><svg xmlns="http://www.w3.org/2000/svg" xmlns:xlink="http://www.w3.org/1999/xlink" contentStyleType="text/css" height="481px" preserveAspectRatio="none" style="width:394px;height:481px;background:#FFFFFF;" version="1.1" viewBox="0 0 394 481" width="394px" zoomAndPan="magnify"><defs/><g><!--class Paddle--><g id="elem_Paddle"><rect codeLine="2" fill="#F1F1F1" height="460.207" id="Paddle" rx="2.5" ry="2.5" style="stroke:#181818;stroke-width:0.5;" width="373" x="7" y="7"/><ellipse cx="166.25" cy="23" fill="#ADD1B2" rx="11" ry="11" style="stroke:#181818;stroke-width:1.0;"/><path d="M168.7231,29.1431 Q168.1421,29.4419 167.5029,29.5913 Q166.8638,29.7407 166.1582,29.7407 Q163.6514,29.7407 162.3315,28.0889 Q161.0117,26.437 161.0117,23.3159 Q161.0117,20.1865 162.3315,18.5347 Q163.6514,16.8828 166.1582,16.8828 Q166.8638,16.8828 167.5112,17.0322 Q168.1587,17.1816 168.7231,17.4805 L168.7231,20.2031 Q168.0923,19.6221 167.4988,19.3523 Q166.9053,19.0825 166.2744,19.0825 Q164.9297,19.0825 164.2449,20.1492 Q163.5601,21.2158 163.5601,23.3159 Q163.5601,25.4077 164.2449,26.4744 Q164.9297,27.541 166.2744,27.541 Q166.9053,27.541 167.4988,27.2712 Q168.0923,27.0015 168.7231,26.4204 Z " fill="#000000"/><text fill="#000000" font-family="sans-serif" font-size="14" lengthAdjust="spacing" textLength="46" x="186.75" y="28.291">Paddle</text><line style="stroke:#181818;stroke-width:0.5;" x1="8" x2="379" y1="39" y2="39"/><rect fill="none" height="6" style="stroke:#C82930;stroke-width:1.0;" width="6" x="15" y="49.7441"/><text fill="#000000" font-family="sans-serif" font-size="14" lengthAdjust="spacing" textLength="78" x="27" y="56.5352">pos_y: float</text><rect fill="none" height="6" style="stroke:#C82930;stroke-width:1.0;" width="6" x="15" y="66.2324"/><text fill="#000000" font-family="sans-serif" font-size="14" lengthAdjust="spacing" textLength="80" x="27" y="73.0234">pos_x: float</text><rect fill="none" height="6" style="stroke:#C82930;stroke-width:1.0;" width="6" x="15" y="82.7207"/><text fill="#000000" font-family="sans-serif" font-size="14" lengthAdjust="spacing" textLength="132" x="27" y="89.5117">racket_height: float</text><rect fill="none" height="6" style="stroke:#C82930;stroke-width:1.0;" width="6" x="15" y="99.209"/><text fill="#000000" font-family="sans-serif" font-size="14" lengthAdjust="spacing" textLength="177" x="27" y="106">racket_width: float {const}</text><rect fill="none" height="6" style="stroke:#C82930;stroke-width:1.0;" width="6" x="15" y="115.6973"/><text fill="#000000" font-family="sans-serif" font-size="14" lengthAdjust="spacing" textLength="180" x="27" y="122.4883">racket_speed: float {const}</text><rect fill="none" height="6" style="stroke:#C82930;stroke-width:1.0;" width="6" x="15" y="132.1855"/><text fill="#000000" font-family="sans-serif" font-size="14" lengthAdjust="spacing" textLength="79" x="27" y="138.9766">is_left: bool</text><rect fill="none" height="6" style="stroke:#C82930;stroke-width:1.0;" width="6" x="15" y="148.6738"/><text fill="#000000" font-family="sans-serif" font-size="14" lengthAdjust="spacing" textLength="184" x="27" y="155.4648">inverse_power_active: bool</text><rect fill="none" height="6" style="stroke:#C82930;stroke-width:1.0;" width="6" x="15" y="165.1621"/><text fill="#000000" font-family="sans-serif" font-size="14" lengthAdjust="spacing" textLength="105" x="27" y="171.9531">multiplier: float</text><line style="stroke:#181818;stroke-width:0.5;" x1="8" x2="379" y1="178.9063" y2="178.9063"/><ellipse cx="18" cy="192.6504" fill="#84BE84" rx="3" ry="3" style="stroke:#038048;stroke-width:1.0;"/><text fill="#000000" font-family="sans-serif" font-size="14" lengthAdjust="spacing" textLength="249" x="27" y="196.4414">Paddle(x: int, on_the_left_side: bool)</text><ellipse cx="18" cy="209.1387" fill="#84BE84" rx="3" ry="3" style="stroke:#038048;stroke-width:1.0;"/><text fill="#000000" font-family="sans-serif" font-size="14" lengthAdjust="spacing" textLength="209" x="27" y="212.9297">update(travel_time: float): void</text><ellipse cx="18" cy="225.627" fill="#84BE84" rx="3" ry="3" style="stroke:#038048;stroke-width:1.0;"/><text fill="#000000" font-family="sans-serif" font-size="14" lengthAdjust="spacing" textLength="312" x="27" y="229.418">render_object(renderer: SDL_Renderer*): void</text><ellipse cx="18" cy="242.1152" fill="#84BE84" rx="3" ry="3" style="stroke:#038048;stroke-width:1.0;"/><text fill="#000000" font-family="sans-serif" font-size="14" lengthAdjust="spacing" textLength="194" x="27" y="245.9063">rectangle(): SDL_Rect {const}</text><text fill="#000000" font-family="sans-serif" font-size="14" lengthAdjust="spacing" textLength="4" x="27" y="262.3945">&#160;</text><ellipse cx="18" cy="275.0918" fill="#84BE84" rx="3" ry="3" style="stroke:#038048;stroke-width:1.0;"/><text fill="#000000" font-family="sans-serif" font-size="14" lengthAdjust="spacing" textLength="169" x="27" y="278.8828">get_is_left(): bool {const}</text><ellipse cx="18" cy="291.5801" fill="#84BE84" rx="3" ry="3" style="stroke:#038048;stroke-width:1.0;"/><text fill="#000000" font-family="sans-serif" font-size="14" lengthAdjust="spacing" textLength="170" x="27" y="295.3711">get_pos_x(): float {const}</text><ellipse cx="18" cy="308.0684" fill="#84BE84" rx="3" ry="3" style="stroke:#038048;stroke-width:1.0;"/><text fill="#000000" font-family="sans-serif" font-size="14" lengthAdjust="spacing" textLength="168" x="27" y="311.8594">get_pos_y(): float {const}</text><ellipse cx="18" cy="324.5566" fill="#84BE84" rx="3" ry="3" style="stroke:#038048;stroke-width:1.0;"/><text fill="#000000" font-family="sans-serif" font-size="14" lengthAdjust="spacing" textLength="219" x="27" y="328.3477">get_racket_speed(): float {const}</text><ellipse cx="18" cy="341.0449" fill="#84BE84" rx="3" ry="3" style="stroke:#038048;stroke-width:1.0;"/><text fill="#000000" font-family="sans-serif" font-size="14" lengthAdjust="spacing" textLength="222" x="27" y="344.8359">get_racket_height(): float {const}</text><ellipse cx="18" cy="357.5332" fill="#84BE84" rx="3" ry="3" style="stroke:#038048;stroke-width:1.0;"/><text fill="#000000" font-family="sans-serif" font-size="14" lengthAdjust="spacing" textLength="216" x="27" y="361.3242">get_racket_width(): float {const}</text><ellipse cx="18" cy="374.0215" fill="#84BE84" rx="3" ry="3" style="stroke:#038048;stroke-width:1.0;"/><text fill="#000000" font-family="sans-serif" font-size="14" lengthAdjust="spacing" textLength="274" x="27" y="377.8125">get_inverse_power_active(): bool {const}</text><text fill="#000000" font-family="sans-serif" font-size="14" lengthAdjust="spacing" textLength="4" x="27" y="394.3008">&#160;</text><ellipse cx="18" cy="406.998" fill="#84BE84" rx="3" ry="3" style="stroke:#038048;stroke-width:1.0;"/><text fill="#000000" font-family="sans-serif" font-size="14" lengthAdjust="spacing" textLength="163" x="27" y="410.7891">set_pos_x(x: float): void</text><ellipse cx="18" cy="423.4863" fill="#84BE84" rx="3" ry="3" style="stroke:#038048;stroke-width:1.0;"/><text fill="#000000" font-family="sans-serif" font-size="14" lengthAdjust="spacing" textLength="159" x="27" y="427.2773">set_pos_y(y: float): void</text><ellipse cx="18" cy="439.9746" fill="#84BE84" rx="3" ry="3" style="stroke:#038048;stroke-width:1.0;"/><text fill="#000000" font-family="sans-serif" font-size="14" lengthAdjust="spacing" textLength="250" x="27" y="443.7656">set_racket_height(height: float): void</text><ellipse cx="18" cy="456.4629" fill="#84BE84" rx="3" ry="3" style="stroke:#038048;stroke-width:1.0;"/><text fill="#000000" font-family="sans-serif" font-size="14" lengthAdjust="spacing" textLength="347" x="27" y="460.2539">set_inverse_power_active(power_active: bool): void</text></g><!--SRC=[XL9BSiCW5Dld52pjVYwGTPTTTDe3C0HUR5e23BmuyMHozsAC7PpWoH99F2Gzk6BUaoycX09osH3oJgpnjD-IlJ8CP-2S0uxnFq3QWcnQB10dAR1DEBbmeprUSzvR057YfQSAzc7apXWr8he3vu5QSm976KVPGKOVZWgbLHBSP2F0hobF5KnBZM_4Q8ejnD7KIv46r55wj88XLEXO1ugYF42QL6z9PwI88WTQXEVDxXSuLkDfUFBduvD-fzFByW97fflWePvK_1OrIffGHCexY0P7MHSZ7viVsFkgRdI_JkTjFrMDotmgYwjTLvNMzP0kglqSxrmetC_f-XLsQNln5U-bHLEF7sgwTjty0m00]--></g></svg>