<?xml version="1.0" encoding="us-ascii" standalone="no"?><svg xmlns="http://www.w3.org/2000/svg" xmlns:xlink="http://www.w3.org/1999/xlink" contentStyleType="text/css" height="550px" preserveAspectRatio="none" style="width:735px;height:550px;background:#FFFFFF;" version="1.1" viewBox="0 0 735 550" width="735px" zoomAndPan="magnify"><defs/><g><!--cluster Game Save System--><g id="cluster_Game Save System"><path d="M8.5,6 L143.5,6 A3.75,3.75 0 0 1 146,8.5 L153,28.4883 L396.5,28.4883 A2.5,2.5 0 0 1 399,30.9883 L399,540.78 A2.5,2.5 0 0 1 396.5,543.28 L8.5,543.28 A2.5,2.5 0 0 1 6,540.78 L6,8.5 A2.5,2.5 0 0 1 8.5,6 " fill="none" style="stroke:#000000;stroke-width:1.5;"/><line style="stroke:#000000;stroke-width:1.5;" x1="6" x2="153" y1="28.4883" y2="28.4883"/><text fill="#000000" font-family="sans-serif" font-size="14" font-weight="bold" lengthAdjust="spacing" textLength="134" x="10" y="21.5352">Game Save System</text></g><!--class Saving--><g id="elem_Saving"><rect codeLine="3" fill="#F1F1F1" height="179.9063" id="Saving" rx="2.5" ry="2.5" style="stroke:#181818;stroke-width:0.5;" width="346" x="37" y="41"/><ellipse cx="183.25" cy="57" fill="#ADD1B2" rx="11" ry="11" style="stroke:#181818;stroke-width:1.0;"/><path d="M185.7231,63.1431 Q185.1421,63.4419 184.5029,63.5913 Q183.8638,63.7407 183.1582,63.7407 Q180.6514,63.7407 179.3315,62.0889 Q178.0117,60.437 178.0117,57.3159 Q178.0117,54.1865 179.3315,52.5347 Q180.6514,50.8828 183.1582,50.8828 Q183.8638,50.8828 184.5112,51.0322 Q185.1587,51.1816 185.7231,51.4805 L185.7231,54.2031 Q185.0923,53.6221 184.4988,53.3523 Q183.9053,53.0825 183.2744,53.0825 Q181.9297,53.0825 181.2449,54.1492 Q180.5601,55.2158 180.5601,57.3159 Q180.5601,59.4077 181.2449,60.4744 Q181.9297,61.541 183.2744,61.541 Q183.9053,61.541 184.4988,61.2712 Q185.0923,61.0015 185.7231,60.4204 Z " fill="#000000"/><text fill="#000000" font-family="sans-serif" font-size="14" lengthAdjust="spacing" textLength="45" x="203.75" y="62.291">Saving</text><line style="stroke:#181818;stroke-width:0.5;" x1="38" x2="382" y1="73" y2="73"/><line style="stroke:#181818;stroke-width:0.5;" x1="38" x2="382" y1="81" y2="81"/><ellipse cx="48" cy="94.7441" fill="#84BE84" rx="3" ry="3" style="stroke:#038048;stroke-width:1.0;"/><text fill="#000000" font-family="sans-serif" font-size="14" lengthAdjust="spacing" text-decoration="underline" textLength="130" x="57" y="98.5352">delete_save() : void</text><ellipse cx="48" cy="111.2324" fill="#84BE84" rx="3" ry="3" style="stroke:#038048;stroke-width:1.0;"/><text fill="#000000" font-family="sans-serif" font-size="14" lengthAdjust="spacing" text-decoration="underline" textLength="168" x="57" y="115.0234">delete_highscore() : void</text><ellipse cx="48" cy="127.7207" fill="#84BE84" rx="3" ry="3" style="stroke:#038048;stroke-width:1.0;"/><text fill="#000000" font-family="sans-serif" font-size="14" lengthAdjust="spacing" text-decoration="underline" textLength="281" x="57" y="131.5117">save_game(const SaveState &amp;state) : bool</text><ellipse cx="48" cy="144.209" fill="#84BE84" rx="3" ry="3" style="stroke:#038048;stroke-width:1.0;"/><text fill="#000000" font-family="sans-serif" font-size="14" lengthAdjust="spacing" text-decoration="underline" textLength="240" x="57" y="148">load_game(SaveState &amp;state) : bool</text><ellipse cx="48" cy="160.6973" fill="#84BE84" rx="3" ry="3" style="stroke:#038048;stroke-width:1.0;"/><text fill="#000000" font-family="sans-serif" font-size="14" lengthAdjust="spacing" text-decoration="underline" textLength="130" x="57" y="164.4883">save_exists() : bool</text><ellipse cx="48" cy="177.1855" fill="#84BE84" rx="3" ry="3" style="stroke:#038048;stroke-width:1.0;"/><text fill="#000000" font-family="sans-serif" font-size="14" lengthAdjust="spacing" text-decoration="underline" textLength="320" x="57" y="180.9766">save_highscore(const HighScore &amp;score) : bool</text><ellipse cx="48" cy="193.6738" fill="#84BE84" rx="3" ry="3" style="stroke:#038048;stroke-width:1.0;"/><text fill="#000000" font-family="sans-serif" font-size="14" lengthAdjust="spacing" text-decoration="underline" textLength="279" x="57" y="197.4648">load_highscore(HighScore &amp;score) : bool</text><ellipse cx="48" cy="210.1621" fill="#84BE84" rx="3" ry="3" style="stroke:#038048;stroke-width:1.0;"/><text fill="#000000" font-family="sans-serif" font-size="14" lengthAdjust="spacing" text-decoration="underline" textLength="168" x="57" y="213.9531">highscore_exists() : bool</text></g><!--class SaveState--><g id="elem_SaveState"><rect codeLine="14" fill="#F1F1F1" height="229.3711" id="SaveState" rx="2.5" ry="2.5" style="stroke:#181818;stroke-width:0.5;" width="192" x="22" y="297.91"/><ellipse cx="81.25" cy="313.91" fill="#F1F1F1" rx="11" ry="11" style="stroke:#181818;stroke-width:1.0;"/><path d="M80.9834,314.973 Q79.1323,314.2674 78.4766,313.4913 Q77.8208,312.7152 77.8208,311.4037 Q77.8208,309.7186 78.8999,308.7557 Q79.979,307.7928 81.8633,307.7928 Q82.7183,307.7928 83.5732,307.9879 Q84.4282,308.1829 85.2666,308.5648 L85.2666,310.9554 Q84.478,310.3993 83.6646,310.1087 Q82.8511,309.8182 82.0542,309.8182 Q81.166,309.8182 80.6929,310.1751 Q80.2197,310.5321 80.2197,311.1961 Q80.2197,311.7108 80.5642,312.047 Q80.9087,312.3831 82.0044,312.7899 L83.0586,313.1883 Q84.5527,313.7362 85.2583,314.641 Q85.9639,315.5457 85.9639,316.9237 Q85.9639,318.7996 84.8557,319.7252 Q83.7476,320.6507 81.5063,320.6507 Q80.585,320.6507 79.6594,320.4308 Q78.7339,320.2108 77.8706,319.7791 L77.8706,317.2474 Q78.8501,317.9447 79.7673,318.285 Q80.6846,318.6253 81.5811,318.6253 Q82.4858,318.6253 82.9839,318.2144 Q83.4819,317.8036 83.4819,317.0648 Q83.4819,316.5086 83.1499,316.0894 Q82.8179,315.6703 82.187,315.4295 Z " fill="#000000"/><text fill="#000000" font-family="sans-serif" font-size="14" lengthAdjust="spacing" textLength="65" x="101.75" y="319.201">SaveState</text><line style="stroke:#181818;stroke-width:0.5;" x1="23" x2="213" y1="329.91" y2="329.91"/><ellipse cx="33" cy="343.6541" fill="none" rx="3" ry="3" style="stroke:#038048;stroke-width:1.0;"/><text fill="#000000" font-family="sans-serif" font-size="14" lengthAdjust="spacing" textLength="76" x="42" y="347.4452">score1 : int</text><ellipse cx="33" cy="360.1424" fill="none" rx="3" ry="3" style="stroke:#038048;stroke-width:1.0;"/><text fill="#000000" font-family="sans-serif" font-size="14" lengthAdjust="spacing" textLength="76" x="42" y="363.9334">score2 : int</text><ellipse cx="33" cy="376.6307" fill="none" rx="3" ry="3" style="stroke:#038048;stroke-width:1.0;"/><text fill="#000000" font-family="sans-serif" font-size="14" lengthAdjust="spacing" textLength="113" x="42" y="380.4217">paddle1_y : float</text><ellipse cx="33" cy="393.119" fill="none" rx="3" ry="3" style="stroke:#038048;stroke-width:1.0;"/><text fill="#000000" font-family="sans-serif" font-size="14" lengthAdjust="spacing" textLength="113" x="42" y="396.91">paddle2_y : float</text><ellipse cx="33" cy="409.6073" fill="none" rx="3" ry="3" style="stroke:#038048;stroke-width:1.0;"/><text fill="#000000" font-family="sans-serif" font-size="14" lengthAdjust="spacing" textLength="84" x="42" y="413.3983">ball_x : float</text><ellipse cx="33" cy="426.0955" fill="none" rx="3" ry="3" style="stroke:#038048;stroke-width:1.0;"/><text fill="#000000" font-family="sans-serif" font-size="14" lengthAdjust="spacing" textLength="82" x="42" y="429.8866">ball_y : float</text><ellipse cx="33" cy="442.5838" fill="none" rx="3" ry="3" style="stroke:#038048;stroke-width:1.0;"/><text fill="#000000" font-family="sans-serif" font-size="14" lengthAdjust="spacing" textLength="110" x="42" y="446.3748">ball_vel_x : float</text><ellipse cx="33" cy="459.0721" fill="none" rx="3" ry="3" style="stroke:#038048;stroke-width:1.0;"/><text fill="#000000" font-family="sans-serif" font-size="14" lengthAdjust="spacing" textLength="108" x="42" y="462.8631">ball_vel_y : float</text><ellipse cx="33" cy="475.5604" fill="none" rx="3" ry="3" style="stroke:#038048;stroke-width:1.0;"/><text fill="#000000" font-family="sans-serif" font-size="14" lengthAdjust="spacing" textLength="91" x="42" y="479.3514">ball_type : int</text><ellipse cx="33" cy="492.0487" fill="none" rx="3" ry="3" style="stroke:#038048;stroke-width:1.0;"/><text fill="#000000" font-family="sans-serif" font-size="14" lengthAdjust="spacing" textLength="166" x="42" y="495.8397">player1_name : char[20]</text><ellipse cx="33" cy="508.537" fill="none" rx="3" ry="3" style="stroke:#038048;stroke-width:1.0;"/><text fill="#000000" font-family="sans-serif" font-size="14" lengthAdjust="spacing" textLength="166" x="42" y="512.328">player2_name : char[20]</text><line style="stroke:#181818;stroke-width:0.5;" x1="23" x2="213" y1="519.2811" y2="519.2811"/></g><!--class HighScore--><g id="elem_HighScore"><rect codeLine="28" fill="#F1F1F1" height="80.9766" id="HighScore" rx="2.5" ry="2.5" style="stroke:#181818;stroke-width:0.5;" width="134" x="249" y="372.11"/><ellipse cx="278.4" cy="388.11" fill="#F1F1F1" rx="11" ry="11" style="stroke:#181818;stroke-width:1.0;"/><path d="M278.1334,389.173 Q276.2823,388.4674 275.6266,387.6913 Q274.9708,386.9152 274.9708,385.6037 Q274.9708,383.9186 276.0499,382.9557 Q277.129,381.9928 279.0133,381.9928 Q279.8683,381.9928 280.7232,382.1879 Q281.5782,382.3829 282.4166,382.7648 L282.4166,385.1554 Q281.628,384.5993 280.8146,384.3087 Q280.0011,384.0182 279.2042,384.0182 Q278.316,384.0182 277.8429,384.3751 Q277.3697,384.7321 277.3697,385.3961 Q277.3697,385.9108 277.7142,386.247 Q278.0587,386.5831 279.1544,386.9899 L280.2086,387.3883 Q281.7027,387.9362 282.4083,388.841 Q283.1139,389.7457 283.1139,391.1237 Q283.1139,392.9996 282.0057,393.9252 Q280.8976,394.8507 278.6563,394.8507 Q277.735,394.8507 276.8094,394.6308 Q275.8839,394.4108 275.0206,393.9791 L275.0206,391.4474 Q276.0001,392.1447 276.9173,392.485 Q277.8346,392.8253 278.7311,392.8253 Q279.6358,392.8253 280.1339,392.4144 Q280.6319,392.0036 280.6319,391.2648 Q280.6319,390.7086 280.2999,390.2894 Q279.9679,389.8703 279.337,389.6295 Z " fill="#000000"/><text fill="#000000" font-family="sans-serif" font-size="14" lengthAdjust="spacing" textLength="70" x="295.6" y="393.401">HighScore</text><line style="stroke:#181818;stroke-width:0.5;" x1="250" x2="382" y1="404.11" y2="404.11"/><ellipse cx="260" cy="417.8541" fill="none" rx="3" ry="3" style="stroke:#038048;stroke-width:1.0;"/><text fill="#000000" font-family="sans-serif" font-size="14" lengthAdjust="spacing" textLength="67" x="269" y="421.6452">score : int</text><ellipse cx="260" cy="434.3424" fill="none" rx="3" ry="3" style="stroke:#038048;stroke-width:1.0;"/><text fill="#000000" font-family="sans-serif" font-size="14" lengthAdjust="spacing" textLength="108" x="269" y="438.1334">name : char[20]</text><line style="stroke:#181818;stroke-width:0.5;" x1="250" x2="382" y1="445.0866" y2="445.0866"/></g><g id="elem_GMN8"><path d="M418,392.28 L418,432.9011 A0,0 0 0 0 418,432.9011 L728,432.9011 A0,0 0 0 0 728,432.9011 L728,402.28 L718,392.28 L551.55,392.28 L325.85,221.2 L543.55,392.28 L418,392.28 A0,0 0 0 0 418,392.28 " fill="#FEFFDD" style="stroke:#181818;stroke-width:0.5;"/><path d="M718,392.28 L718,402.28 L728,402.28 L718,392.28 " fill="#FEFFDD" style="stroke:#181818;stroke-width:0.5;"/><text fill="#000000" font-family="sans-serif" font-size="13" lengthAdjust="spacing" textLength="214" x="424" y="409.8484">All methods are static - this class</text><text fill="#000000" font-family="sans-serif" font-size="13" lengthAdjust="spacing" textLength="289" x="424" y="425.1589">serves as a utility class with no instance state</text></g><!--link Saving to SaveState--><g id="link_Saving_SaveState"><path codeLine="33" d="M180.64,221.2 C172.64,245.5 165.7552,266.4506 157.3752,291.9206 " fill="none" id="Saving-to-SaveState" style="stroke:#181818;stroke-width:1.0;stroke-dasharray:7.0,7.0;"/><polygon fill="#181818" points="155.5,297.62,162.1124,290.321,157.0627,292.8705,154.5132,287.8207,155.5,297.62" style="stroke:#181818;stroke-width:1.0;"/><text fill="#000000" font-family="sans-serif" font-size="13" lengthAdjust="spacing" textLength="29" x="170.51" y="264.4784">uses</text></g><!--link Saving to HighScore--><g id="link_Saving_HighScore"><path codeLine="34" d="M243.83,221.2 C263.04,271.87 284.0036,327.1694 298.8036,366.2194 " fill="none" id="Saving-to-HighScore" style="stroke:#181818;stroke-width:1.0;stroke-dasharray:7.0,7.0;"/><polygon fill="#181818" points="300.93,371.83,301.4808,361.9966,299.158,367.1545,294,364.8318,300.93,371.83" style="stroke:#181818;stroke-width:1.0;"/><text fill="#000000" font-family="sans-serif" font-size="13" lengthAdjust="spacing" textLength="29" x="260.82" y="264.4784">uses</text></g><!--SRC=[bPDDQyCm38Rl-HLYXz4nLjOSUnZijDrx72EuZfgOENQ9rAoXzBzFJi9IwhIb9ZZOx_j8yjTMwHzL83nyg0fXfHhfMcAi7k2GW3Hj5L4GZ2k6gT2UuK2isEWZv6YHCIDXPq-mXCQR_8glD4L9sjVNpI5QLaXDC-qTSLVPIZI4ns31mAwzjrEizIhlsNkeBYFk3J7DRlh6HVJbVSfu5SQIAFnkbZS6k0VzfoOBFNPzrn7NEtswQwSdrqLO26aSdq-dqVHMvRd5HTQAif7QOosTrDRAscn_IRX8D7Y52k95ajijnjLRrMAzo5outalGfQg_qjVlo95EEk8T7Kyhsj4ezus8mvkQpzzEpca9Eq8wryUiWtvC4kV5llRClWA_6Tm2lbiB5NBfSm8bH7ztu0MuDDG_Pt4HrWsAGJxOiR66s-6f_nekmNbPYv1Ezm4mGPT3I9dy0G00]--></g></svg>