<?xml version="1.0" encoding="us-ascii" standalone="no"?><svg xmlns="http://www.w3.org/2000/svg" xmlns:xlink="http://www.w3.org/1999/xlink" contentStyleType="text/css" height="269px" preserveAspectRatio="none" style="width:305px;height:269px;background:#FFFFFF;" version="1.1" viewBox="0 0 305 269" width="305px" zoomAndPan="magnify"><defs/><g><!--class AI--><g id="elem_AI"><rect codeLine="2" fill="#F1F1F1" height="130.4414" id="AI" rx="2.5" ry="2.5" style="stroke:#181818;stroke-width:0.5;" width="291" x="7" y="7"/><ellipse cx="141.25" cy="23" fill="#ADD1B2" rx="11" ry="11" style="stroke:#181818;stroke-width:1.0;"/><path d="M143.7231,29.1431 Q143.1421,29.4419 142.5029,29.5913 Q141.8638,29.7407 141.1582,29.7407 Q138.6514,29.7407 137.3315,28.0889 Q136.0117,26.437 136.0117,23.3159 Q136.0117,20.1865 137.3315,18.5347 Q138.6514,16.8828 141.1582,16.8828 Q141.8638,16.8828 142.5112,17.0322 Q143.1587,17.1816 143.7231,17.4805 L143.7231,20.2031 Q143.0923,19.6221 142.4988,19.3523 Q141.9053,19.0825 141.2744,19.0825 Q139.9297,19.0825 139.2449,20.1492 Q138.5601,21.2158 138.5601,23.3159 Q138.5601,25.4077 139.2449,26.4744 Q139.9297,27.541 141.2744,27.541 Q141.9053,27.541 142.4988,27.2712 Q143.0923,27.0015 143.7231,26.4204 Z " fill="#000000"/><text fill="#000000" font-family="sans-serif" font-size="14" lengthAdjust="spacing" textLength="14" x="161.75" y="28.291">AI</text><line style="stroke:#181818;stroke-width:0.5;" x1="8" x2="297" y1="39" y2="39"/><rect fill="none" height="6" style="stroke:#C82930;stroke-width:1.0;" width="6" x="15" y="49.7441"/><text fill="#000000" font-family="sans-serif" font-size="14" lengthAdjust="spacing" textLength="103" x="27" y="56.5352">racket: Paddle*</text><rect fill="none" height="6" style="stroke:#C82930;stroke-width:1.0;" width="6" x="15" y="66.2324"/><text fill="#000000" font-family="sans-serif" font-size="14" lengthAdjust="spacing" textLength="104" x="27" y="73.0234">ai_difficulty: int</text><line style="stroke:#181818;stroke-width:0.5;" x1="8" x2="297" y1="79.9766" y2="79.9766"/><ellipse cx="18" cy="93.7207" fill="#84BE84" rx="3" ry="3" style="stroke:#038048;stroke-width:1.0;"/><text fill="#000000" font-family="sans-serif" font-size="14" lengthAdjust="spacing" textLength="201" x="27" y="97.5117">AI(controlledPaddle: Paddle*)</text><ellipse cx="18" cy="110.209" fill="#84BE84" rx="3" ry="3" style="stroke:#038048;stroke-width:1.0;"/><text fill="#000000" font-family="sans-serif" font-size="14" lengthAdjust="spacing" textLength="265" x="27" y="114">updateAI(ball: BallBase*, dt: float): void</text><ellipse cx="18" cy="126.6973" fill="#84BE84" rx="3" ry="3" style="stroke:#038048;stroke-width:1.0;"/><text fill="#000000" font-family="sans-serif" font-size="14" lengthAdjust="spacing" textLength="218" x="27" y="130.4883">set_difficulty(difficulty: int): void</text></g><!--class Paddle--><g id="elem_Paddle"><rect codeLine="11" fill="#F1F1F1" height="48" id="Paddle" rx="2.5" ry="2.5" style="stroke:#181818;stroke-width:0.5;" width="78" x="55.5" y="214.44"/><ellipse cx="70.5" cy="230.44" fill="#ADD1B2" rx="11" ry="11" style="stroke:#181818;stroke-width:1.0;"/><path d="M72.9731,236.5831 Q72.3921,236.8819 71.7529,237.0313 Q71.1138,237.1807 70.4082,237.1807 Q67.9014,237.1807 66.5815,235.5289 Q65.2617,233.877 65.2617,230.7559 Q65.2617,227.6265 66.5815,225.9747 Q67.9014,224.3228 70.4082,224.3228 Q71.1138,224.3228 71.7612,224.4722 Q72.4087,224.6216 72.9731,224.9205 L72.9731,227.6431 Q72.3423,227.0621 71.7488,226.7923 Q71.1553,226.5225 70.5244,226.5225 Q69.1797,226.5225 68.4949,227.5892 Q67.8101,228.6558 67.8101,230.7559 Q67.8101,232.8477 68.4949,233.9144 Q69.1797,234.981 70.5244,234.981 Q71.1553,234.981 71.7488,234.7112 Q72.3423,234.4415 72.9731,233.8604 Z " fill="#000000"/><text fill="#000000" font-family="sans-serif" font-size="14" lengthAdjust="spacing" textLength="46" x="84.5" y="235.731">Paddle</text><line style="stroke:#181818;stroke-width:0.5;" x1="56.5" x2="132.5" y1="246.44" y2="246.44"/><line style="stroke:#181818;stroke-width:0.5;" x1="56.5" x2="132.5" y1="254.44" y2="254.44"/></g><!--class BallBase--><g id="elem_BallBase"><rect codeLine="14" fill="#F1F1F1" height="48" id="BallBase" rx="2.5" ry="2.5" style="stroke:#181818;stroke-width:0.5;" width="87" x="168" y="214.44"/><ellipse cx="183" cy="230.44" fill="#ADD1B2" rx="11" ry="11" style="stroke:#181818;stroke-width:1.0;"/><path d="M185.4731,236.5831 Q184.8921,236.8819 184.2529,237.0313 Q183.6138,237.1807 182.9082,237.1807 Q180.4014,237.1807 179.0815,235.5289 Q177.7617,233.877 177.7617,230.7559 Q177.7617,227.6265 179.0815,225.9747 Q180.4014,224.3228 182.9082,224.3228 Q183.6138,224.3228 184.2612,224.4722 Q184.9087,224.6216 185.4731,224.9205 L185.4731,227.6431 Q184.8423,227.0621 184.2488,226.7923 Q183.6553,226.5225 183.0244,226.5225 Q181.6797,226.5225 180.9949,227.5892 Q180.3101,228.6558 180.3101,230.7559 Q180.3101,232.8477 180.9949,233.9144 Q181.6797,234.981 183.0244,234.981 Q183.6553,234.981 184.2488,234.7112 Q184.8423,234.4415 185.4731,233.8604 Z " fill="#000000"/><text fill="#000000" font-family="sans-serif" font-size="14" lengthAdjust="spacing" textLength="55" x="197" y="235.731">BallBase</text><line style="stroke:#181818;stroke-width:0.5;" x1="169" x2="254" y1="246.44" y2="246.44"/><line style="stroke:#181818;stroke-width:0.5;" x1="169" x2="254" y1="254.44" y2="254.44"/></g><!--link AI to Paddle--><g id="link_AI_Paddle"><path codeLine="17" d="M125.43,137.76 C121.59,147.64 117.82,157.76 114.5,167.44 C109.2,182.86 105.7312,194.7167 102.0312,208.4467 " fill="none" id="AI-to-Paddle" style="stroke:#181818;stroke-width:1.0;"/><polygon fill="#181818" points="100.47,214.24,106.674,206.5908,101.771,209.4122,98.9496,204.5092,100.47,214.24" style="stroke:#181818;stroke-width:1.0;"/><text fill="#000000" font-family="sans-serif" font-size="13" lengthAdjust="spacing" textLength="52" x="115.5" y="181.0084">controls</text></g><!--link AI to BallBase--><g id="link_AI_BallBase"><path codeLine="18" d="M175.65,137.65 C185.33,164.61 193.9521,188.5931 201.1021,208.5031 " fill="none" id="AI-to-BallBase" style="stroke:#181818;stroke-width:1.0;stroke-dasharray:7.0,7.0;"/><polygon fill="#181818" points="203.13,214.15,203.8528,204.3277,201.4401,209.4442,196.3235,207.0316,203.13,214.15" style="stroke:#181818;stroke-width:1.0;"/><text fill="#000000" font-family="sans-serif" font-size="13" lengthAdjust="spacing" textLength="29" x="193.42" y="181.0084">uses</text></g><!--SRC=[NO_12eCm38RlVOeSrKqVe0T1Rzxs1YDhAfG5EqmTZB5tNpgdZ47euUDB_h-EKGIw0Pu6e9xHNNsoS48YzbL66CuKnZ6uXTF3GfYIKfr3DnGkJccEp9xMXNsnpC9o8qnUjGioM-ZrxL5yTGJIY94ZfjB2FGRAjlZq4rJyPMxYonZtQRm6QUkTRFTNfZ-gwnQsNj-caddJjBjiOH4lvWq0]--></g></svg>