<?xml version="1.0" encoding="us-ascii" standalone="no"?><svg xmlns="http://www.w3.org/2000/svg" xmlns:xlink="http://www.w3.org/1999/xlink" contentStyleType="text/css" height="700px" preserveAspectRatio="none" style="width:1098px;height:700px;background:#FFFFFF;" version="1.1" viewBox="0 0 1098 700" width="1098px" zoomAndPan="magnify"><defs/><g><!--class BallBase--><g id="elem_BallBase"><rect codeLine="2" fill="#F1F1F1" height="443.7188" id="BallBase" rx="2.5" ry="2.5" style="stroke:#181818;stroke-width:0.5;" width="695" x="201.5" y="7"/><ellipse cx="517.25" cy="23" fill="#A9DCDF" rx="11" ry="11" style="stroke:#181818;stroke-width:1.0;"/><path d="M517.1133,18.3481 L515.9595,23.4199 L518.2754,23.4199 Z M515.6191,16.1069 L518.6157,16.1069 L521.9609,28.5 L519.5122,28.5 L518.7485,25.437 L515.4697,25.437 L514.7227,28.5 L512.2739,28.5 Z " fill="#000000"/><text fill="#000000" font-family="sans-serif" font-size="14" font-style="italic" lengthAdjust="spacing" textLength="55" x="537.75" y="28.291">BallBase</text><line style="stroke:#181818;stroke-width:0.5;" x1="202.5" x2="895.5" y1="39" y2="39"/><polygon fill="none" points="212.5,47.7441,216.5,51.7441,212.5,55.7441,208.5,51.7441" style="stroke:#B38D22;stroke-width:1.0;"/><text fill="#000000" font-family="sans-serif" font-size="14" lengthAdjust="spacing" textLength="80" x="221.5" y="56.5352">pos_x: float</text><polygon fill="none" points="212.5,64.2324,216.5,68.2324,212.5,72.2324,208.5,68.2324" style="stroke:#B38D22;stroke-width:1.0;"/><text fill="#000000" font-family="sans-serif" font-size="14" lengthAdjust="spacing" textLength="78" x="221.5" y="73.0234">pos_y: float</text><polygon fill="none" points="212.5,80.7207,216.5,84.7207,212.5,88.7207,208.5,84.7207" style="stroke:#B38D22;stroke-width:1.0;"/><text fill="#000000" font-family="sans-serif" font-size="14" lengthAdjust="spacing" textLength="74" x="221.5" y="89.5117">vel_x: float</text><polygon fill="none" points="212.5,97.209,216.5,101.209,212.5,105.209,208.5,101.209" style="stroke:#B38D22;stroke-width:1.0;"/><text fill="#000000" font-family="sans-serif" font-size="14" lengthAdjust="spacing" textLength="72" x="221.5" y="106">vel_y: float</text><polygon fill="none" points="212.5,113.6973,216.5,117.6973,212.5,121.6973,208.5,117.6973" style="stroke:#B38D22;stroke-width:1.0;"/><text fill="#000000" font-family="sans-serif" font-size="14" lengthAdjust="spacing" textLength="149" x="221.5" y="122.4883">ball_size: float {const}</text><polygon fill="none" points="212.5,130.1855,216.5,134.1855,212.5,138.1855,208.5,134.1855" style="stroke:#B38D22;stroke-width:1.0;"/><text fill="#000000" font-family="sans-serif" font-size="14" lengthAdjust="spacing" textLength="113" x="221.5" y="138.9766">color: SDL_Color</text><polygon fill="none" points="212.5,146.6738,216.5,150.6738,212.5,154.6738,208.5,150.6738" style="stroke:#B38D22;stroke-width:1.0;"/><text fill="#000000" font-family="sans-serif" font-size="14" lengthAdjust="spacing" textLength="146" x="221.5" y="155.4648">game_mode: int = -1</text><line style="stroke:#181818;stroke-width:0.5;" x1="202.5" x2="895.5" y1="162.418" y2="162.418"/><ellipse cx="212.5" cy="176.1621" fill="#84BE84" rx="3" ry="3" style="stroke:#038048;stroke-width:1.0;"/><text fill="#000000" font-family="sans-serif" font-size="14" lengthAdjust="spacing" textLength="186" x="221.5" y="179.9531">BallBase(size: float = 35.0f)</text><ellipse cx="212.5" cy="192.6504" fill="#84BE84" rx="3" ry="3" style="stroke:#038048;stroke-width:1.0;"/><text fill="#000000" font-family="sans-serif" font-size="14" font-style="italic" lengthAdjust="spacing" textLength="312" x="221.5" y="196.4414">render_object(renderer: SDL_Renderer*): void</text><ellipse cx="212.5" cy="209.1387" fill="#84BE84" rx="3" ry="3" style="stroke:#038048;stroke-width:1.0;"/><text fill="#000000" font-family="sans-serif" font-size="14" lengthAdjust="spacing" textLength="669" x="221.5" y="212.9297">update(travel_time: float, paddle1: Paddle*, paddle2: Paddle*, player1: User*, player2: User*): void</text><ellipse cx="212.5" cy="225.627" fill="#84BE84" rx="3" ry="3" style="stroke:#038048;stroke-width:1.0;"/><text fill="#000000" font-family="sans-serif" font-size="14" lengthAdjust="spacing" textLength="81" x="221.5" y="229.418">reset(): void</text><ellipse cx="212.5" cy="242.1152" fill="#84BE84" rx="3" ry="3" style="stroke:#038048;stroke-width:1.0;"/><text fill="#000000" font-family="sans-serif" font-size="14" lengthAdjust="spacing" textLength="214" x="221.5" y="245.9063">random_direction_angle(): void</text><ellipse cx="212.5" cy="258.6035" fill="#84BE84" rx="3" ry="3" style="stroke:#038048;stroke-width:1.0;"/><text fill="#000000" font-family="sans-serif" font-size="14" lengthAdjust="spacing" textLength="232" x="221.5" y="262.3945">set_position(x: float, y: float): void</text><ellipse cx="212.5" cy="275.0918" fill="#84BE84" rx="3" ry="3" style="stroke:#038048;stroke-width:1.0;"/><text fill="#000000" font-family="sans-serif" font-size="14" lengthAdjust="spacing" textLength="267" x="221.5" y="278.8828">set_velocity(velX: float, velY: float): void</text><ellipse cx="212.5" cy="291.5801" fill="#84BE84" rx="3" ry="3" style="stroke:#038048;stroke-width:1.0;"/><text fill="#000000" font-family="sans-serif" font-size="14" lengthAdjust="spacing" textLength="308" x="221.5" y="295.3711">set_color(new_color: const SDL_Color&amp;): void</text><ellipse cx="212.5" cy="308.0684" fill="#84BE84" rx="3" ry="3" style="stroke:#038048;stroke-width:1.0;"/><text fill="#000000" font-family="sans-serif" font-size="14" lengthAdjust="spacing" textLength="223" x="221.5" y="311.8594">set_game_mode(mode: int): void</text><ellipse cx="212.5" cy="324.5566" fill="#84BE84" rx="3" ry="3" style="stroke:#038048;stroke-width:1.0;"/><text fill="#000000" font-family="sans-serif" font-size="14" lengthAdjust="spacing" textLength="214" x="221.5" y="328.3477">boundaries(): SDL_Rect {virtual}</text><ellipse cx="212.5" cy="341.0449" fill="#84BE84" rx="3" ry="3" style="stroke:#038048;stroke-width:1.0;"/><text fill="#000000" font-family="sans-serif" font-size="14" lengthAdjust="spacing" textLength="164" x="221.5" y="344.8359">get_vel_x(): float {const}</text><ellipse cx="212.5" cy="357.5332" fill="#84BE84" rx="3" ry="3" style="stroke:#038048;stroke-width:1.0;"/><text fill="#000000" font-family="sans-serif" font-size="14" lengthAdjust="spacing" textLength="162" x="221.5" y="361.3242">get_vel_y(): float {const}</text><ellipse cx="212.5" cy="374.0215" fill="#84BE84" rx="3" ry="3" style="stroke:#038048;stroke-width:1.0;"/><text fill="#000000" font-family="sans-serif" font-size="14" lengthAdjust="spacing" textLength="170" x="221.5" y="377.8125">get_pos_x(): float {const}</text><ellipse cx="212.5" cy="390.5098" fill="#84BE84" rx="3" ry="3" style="stroke:#038048;stroke-width:1.0;"/><text fill="#000000" font-family="sans-serif" font-size="14" lengthAdjust="spacing" textLength="168" x="221.5" y="394.3008">get_pos_y(): float {const}</text><ellipse cx="212.5" cy="406.998" fill="#84BE84" rx="3" ry="3" style="stroke:#038048;stroke-width:1.0;"/><text fill="#000000" font-family="sans-serif" font-size="14" lengthAdjust="spacing" textLength="203" x="221.5" y="410.7891">get_color(): SDL_Color {const}</text><ellipse cx="212.5" cy="423.4863" fill="#84BE84" rx="3" ry="3" style="stroke:#038048;stroke-width:1.0;"/><text fill="#000000" font-family="sans-serif" font-size="14" lengthAdjust="spacing" textLength="200" x="221.5" y="427.2773">get_game_mode(): int {const}</text><ellipse cx="212.5" cy="439.9746" fill="#84BE84" rx="3" ry="3" style="stroke:#038048;stroke-width:1.0;"/><text fill="#000000" font-family="sans-serif" font-size="14" lengthAdjust="spacing" textLength="125" x="221.5" y="443.7656">~BallBase(): virtual</text></g><!--class ClassicBall--><g id="elem_ClassicBall"><rect codeLine="30" fill="#F1F1F1" height="97.4648" id="ClassicBall" rx="2.5" ry="2.5" style="stroke:#181818;stroke-width:0.5;" width="338" x="7" y="510.71"/><ellipse cx="136.25" cy="526.71" fill="#ADD1B2" rx="11" ry="11" style="stroke:#181818;stroke-width:1.0;"/><path d="M138.7231,532.8531 Q138.1421,533.1519 137.5029,533.3013 Q136.8638,533.4507 136.1582,533.4507 Q133.6514,533.4507 132.3315,531.7989 Q131.0117,530.147 131.0117,527.0259 Q131.0117,523.8965 132.3315,522.2447 Q133.6514,520.5928 136.1582,520.5928 Q136.8638,520.5928 137.5112,520.7422 Q138.1587,520.8916 138.7231,521.1905 L138.7231,523.9131 Q138.0923,523.3321 137.4988,523.0623 Q136.9053,522.7925 136.2744,522.7925 Q134.9297,522.7925 134.2449,523.8592 Q133.5601,524.9258 133.5601,527.0259 Q133.5601,529.1177 134.2449,530.1844 Q134.9297,531.251 136.2744,531.251 Q136.9053,531.251 137.4988,530.9812 Q138.0923,530.7115 138.7231,530.1304 Z " fill="#000000"/><text fill="#000000" font-family="sans-serif" font-size="14" lengthAdjust="spacing" textLength="71" x="156.75" y="532.001">ClassicBall</text><line style="stroke:#181818;stroke-width:0.5;" x1="8" x2="344" y1="542.71" y2="542.71"/><rect fill="none" height="6" style="stroke:#C82930;stroke-width:1.0;" width="6" x="15" y="553.4541"/><text fill="#000000" font-family="sans-serif" font-size="14" lengthAdjust="spacing" textLength="248" x="27" y="560.2452">ball_texture: SDL_Texture* = nullptr</text><line style="stroke:#181818;stroke-width:0.5;" x1="8" x2="344" y1="567.1983" y2="567.1983"/><ellipse cx="18" cy="580.9424" fill="#84BE84" rx="3" ry="3" style="stroke:#038048;stroke-width:1.0;"/><text fill="#000000" font-family="sans-serif" font-size="14" lengthAdjust="spacing" textLength="81" x="27" y="584.7334">ClassicBall()</text><ellipse cx="18" cy="597.4307" fill="#84BE84" rx="3" ry="3" style="stroke:#038048;stroke-width:1.0;"/><text fill="#000000" font-family="sans-serif" font-size="14" lengthAdjust="spacing" textLength="312" x="27" y="601.2217">render_object(renderer: SDL_Renderer*): void</text></g><!--class SquareBall--><g id="elem_SquareBall"><rect codeLine="36" fill="#F1F1F1" height="80.9766" id="SquareBall" rx="2.5" ry="2.5" style="stroke:#181818;stroke-width:0.5;" width="338" x="380" y="518.96"/><ellipse cx="508.75" cy="534.96" fill="#ADD1B2" rx="11" ry="11" style="stroke:#181818;stroke-width:1.0;"/><path d="M511.2231,541.1031 Q510.6421,541.4019 510.0029,541.5513 Q509.3638,541.7007 508.6582,541.7007 Q506.1514,541.7007 504.8315,540.0489 Q503.5117,538.397 503.5117,535.2759 Q503.5117,532.1465 504.8315,530.4947 Q506.1514,528.8428 508.6582,528.8428 Q509.3638,528.8428 510.0112,528.9922 Q510.6587,529.1416 511.2231,529.4405 L511.2231,532.1631 Q510.5923,531.5821 509.9988,531.3123 Q509.4053,531.0425 508.7744,531.0425 Q507.4297,531.0425 506.7449,532.1092 Q506.0601,533.1758 506.0601,535.2759 Q506.0601,537.3677 506.7449,538.4344 Q507.4297,539.501 508.7744,539.501 Q509.4053,539.501 509.9988,539.2312 Q510.5923,538.9615 511.2231,538.3804 Z " fill="#000000"/><text fill="#000000" font-family="sans-serif" font-size="14" lengthAdjust="spacing" textLength="72" x="529.25" y="540.251">SquareBall</text><line style="stroke:#181818;stroke-width:0.5;" x1="381" x2="717" y1="550.96" y2="550.96"/><line style="stroke:#181818;stroke-width:0.5;" x1="381" x2="717" y1="558.96" y2="558.96"/><ellipse cx="391" cy="572.7041" fill="#84BE84" rx="3" ry="3" style="stroke:#038048;stroke-width:1.0;"/><text fill="#000000" font-family="sans-serif" font-size="14" lengthAdjust="spacing" textLength="82" x="400" y="576.4952">SquareBall()</text><ellipse cx="391" cy="589.1924" fill="#84BE84" rx="3" ry="3" style="stroke:#038048;stroke-width:1.0;"/><text fill="#000000" font-family="sans-serif" font-size="14" lengthAdjust="spacing" textLength="312" x="400" y="592.9834">render_object(renderer: SDL_Renderer*): void</text></g><!--class TriangleBall--><g id="elem_TriangleBall"><rect codeLine="41" fill="#F1F1F1" height="80.9766" id="TriangleBall" rx="2.5" ry="2.5" style="stroke:#181818;stroke-width:0.5;" width="338" x="753" y="518.96"/><ellipse cx="877.25" cy="534.96" fill="#ADD1B2" rx="11" ry="11" style="stroke:#181818;stroke-width:1.0;"/><path d="M879.7231,541.1031 Q879.1421,541.4019 878.5029,541.5513 Q877.8638,541.7007 877.1582,541.7007 Q874.6514,541.7007 873.3315,540.0489 Q872.0117,538.397 872.0117,535.2759 Q872.0117,532.1465 873.3315,530.4947 Q874.6514,528.8428 877.1582,528.8428 Q877.8638,528.8428 878.5112,528.9922 Q879.1587,529.1416 879.7231,529.4405 L879.7231,532.1631 Q879.0923,531.5821 878.4988,531.3123 Q877.9053,531.0425 877.2744,531.0425 Q875.9297,531.0425 875.2449,532.1092 Q874.5601,533.1758 874.5601,535.2759 Q874.5601,537.3677 875.2449,538.4344 Q875.9297,539.501 877.2744,539.501 Q877.9053,539.501 878.4988,539.2312 Q879.0923,538.9615 879.7231,538.3804 Z " fill="#000000"/><text fill="#000000" font-family="sans-serif" font-size="14" lengthAdjust="spacing" textLength="81" x="897.75" y="540.251">TriangleBall</text><line style="stroke:#181818;stroke-width:0.5;" x1="754" x2="1090" y1="550.96" y2="550.96"/><line style="stroke:#181818;stroke-width:0.5;" x1="754" x2="1090" y1="558.96" y2="558.96"/><ellipse cx="764" cy="572.7041" fill="#84BE84" rx="3" ry="3" style="stroke:#038048;stroke-width:1.0;"/><text fill="#000000" font-family="sans-serif" font-size="14" lengthAdjust="spacing" textLength="91" x="773" y="576.4952">TriangleBall()</text><ellipse cx="764" cy="589.1924" fill="#84BE84" rx="3" ry="3" style="stroke:#038048;stroke-width:1.0;"/><text fill="#000000" font-family="sans-serif" font-size="14" lengthAdjust="spacing" textLength="312" x="773" y="592.9834">render_object(renderer: SDL_Renderer*): void</text></g><g id="elem_N1"><path d="M8.5,668.18 L8.5,693.4905 A0,0 0 0 0 8.5,693.4905 L343.5,693.4905 A0,0 0 0 0 343.5,693.4905 L343.5,678.18 L333.5,668.18 L180,668.18 L176,608.66 L172,668.18 L8.5,668.18 A0,0 0 0 0 8.5,668.18 " fill="#FEFFDD" style="stroke:#181818;stroke-width:0.5;"/><path d="M333.5,668.18 L333.5,678.18 L343.5,678.18 L333.5,668.18 " fill="#FEFFDD" style="stroke:#181818;stroke-width:0.5;"/><text fill="#000000" font-family="sans-serif" font-size="13" lengthAdjust="spacing" textLength="314" x="14.5" y="685.7484">ball_size = 24.0f or ball_size = 15.0f (shape case)</text></g><g id="elem_N2"><path d="M485.5,668.18 L485.5,693.4905 A0,0 0 0 0 485.5,693.4905 L612.5,693.4905 A0,0 0 0 0 612.5,693.4905 L612.5,678.18 L602.5,668.18 L553,668.18 L549,600.2 L545,668.18 L485.5,668.18 A0,0 0 0 0 485.5,668.18 " fill="#FEFFDD" style="stroke:#181818;stroke-width:0.5;"/><path d="M602.5,668.18 L602.5,678.18 L612.5,678.18 L602.5,668.18 " fill="#FEFFDD" style="stroke:#181818;stroke-width:0.5;"/><text fill="#000000" font-family="sans-serif" font-size="13" lengthAdjust="spacing" textLength="106" x="491.5" y="685.7484">ball_size = 20.0f</text></g><g id="elem_N3"><path d="M858.5,668.18 L858.5,693.4905 A0,0 0 0 0 858.5,693.4905 L985.5,693.4905 A0,0 0 0 0 985.5,693.4905 L985.5,678.18 L975.5,668.18 L926,668.18 L922,600.2 L918,668.18 L858.5,668.18 A0,0 0 0 0 858.5,668.18 " fill="#FEFFDD" style="stroke:#181818;stroke-width:0.5;"/><path d="M975.5,668.18 L975.5,678.18 L985.5,678.18 L975.5,668.18 " fill="#FEFFDD" style="stroke:#181818;stroke-width:0.5;"/><text fill="#000000" font-family="sans-serif" font-size="13" lengthAdjust="spacing" textLength="106" x="864.5" y="685.7484">ball_size = 20.0f</text></g><!--reverse link BallBase to ClassicBall--><g id="link_BallBase_ClassicBall"><path codeLine="46" d="M284.371,462.9757 C259.501,484.8757 249.9,493.35 230.63,510.32 " fill="none" id="BallBase-backto-ClassicBall" style="stroke:#181818;stroke-width:1.0;"/><polygon fill="none" points="297.88,451.08,280.4058,458.4727,288.3363,467.4787,297.88,451.08" style="stroke:#181818;stroke-width:1.0;"/></g><!--reverse link BallBase to SquareBall--><g id="link_BallBase_SquareBall"><path codeLine="47" d="M549,468.85 C549,494.51 549,500.06 549,518.55 " fill="none" id="BallBase-backto-SquareBall" style="stroke:#181818;stroke-width:1.0;"/><polygon fill="none" points="549,450.85,543,468.85,555,468.85,549,450.85" style="stroke:#181818;stroke-width:1.0;"/></g><!--reverse link BallBase to TriangleBall--><g id="link_BallBase_TriangleBall"><path codeLine="48" d="M813.6283,462.9764 C842.7083,488.5864 855.88,500.2 876.82,518.64 " fill="none" id="BallBase-backto-TriangleBall" style="stroke:#181818;stroke-width:1.0;"/><polygon fill="none" points="800.12,451.08,809.6628,467.4792,817.5938,458.4737,800.12,451.08" style="stroke:#181818;stroke-width:1.0;"/></g><!--SRC=[fLHDRnCn4BtxLuoAX7PJ4ZK9N29wQJaYX6YHu6GvkzDWvDYBxGq98Vps-cFZU1SQ2P2YQEVDc_5yF9ijZTMiib09PWpSC25kc47O4u1dq2X3jmju48hP1EnoO8EYp_10Zx5qAQdXFx03OLyfQUmXE2ibb5x0tPktzDP_1d35raZNgdOHN5guXl7KuUvtcUehyeJNC7yrkNee0sFFkeuEe57MgAbQViNA5j72xhGFdJKg5x1Hl0wnRLCpYuKBzrrOlZuUyG8QLjS2fmju7pv6HsIM8uBjK3lEH-CI7-rPP-S7QJHeYnx2PAtMjERQrSgLf4ok1FOeBeIw-NFlBhQfikEmXrJNWggutHNkurDYE-Fp4m5X5uN4xxJRIjZJQJVFXm5fJqLQLavPgbRMJ7CqlequT2Uq_OPhsp9n2AHLh9HkFMUeZvDxzxGxQFIy-qnqRBhC9FWRvTHc6GMP4tubHVhMOsVaG4YyJhV-drUU4sxKEDu6YrlRQeo7taTZv6GiMo4QgqFYBBGeEz7yXPnJ2NVVMgOnLN2P0V-Lzrxp8D4iSmxzO-xq_hp-EHxdCnXuJaqC77aDX4Xb4IxI2-H6F7lfNWfmMyx1gNy-e31VM8DGkLpb1J03xwP_Id3bkD4zE- -U4vBlVpBn2RDrU616UdFqq9my0W00]--></g></svg>