<?xml version="1.0" encoding="us-ascii" standalone="no"?><svg xmlns="http://www.w3.org/2000/svg" xmlns:xlink="http://www.w3.org/1999/xlink" contentStyleType="text/css" height="582px" preserveAspectRatio="none" style="width:947px;height:582px;background:#FFFFFF;" version="1.1" viewBox="0 0 947 582" width="947px" zoomAndPan="magnify"><defs/><g><!--class Letter--><g id="elem_Letter"><rect codeLine="2" fill="#F1F1F1" height="443.7188" id="Letter" rx="2.5" ry="2.5" style="stroke:#181818;stroke-width:0.5;" width="933" x="7" y="7"/><ellipse cx="449.75" cy="23" fill="#ADD1B2" rx="11" ry="11" style="stroke:#181818;stroke-width:1.0;"/><path d="M452.2231,29.1431 Q451.6421,29.4419 451.0029,29.5913 Q450.3638,29.7407 449.6582,29.7407 Q447.1514,29.7407 445.8315,28.0889 Q444.5117,26.437 444.5117,23.3159 Q444.5117,20.1865 445.8315,18.5347 Q447.1514,16.8828 449.6582,16.8828 Q450.3638,16.8828 451.0112,17.0322 Q451.6587,17.1816 452.2231,17.4805 L452.2231,20.2031 Q451.5923,19.6221 450.9988,19.3523 Q450.4053,19.0825 449.7744,19.0825 Q448.4297,19.0825 447.7449,20.1492 Q447.0601,21.2158 447.0601,23.3159 Q447.0601,25.4077 447.7449,26.4744 Q448.4297,27.541 449.7744,27.541 Q450.4053,27.541 450.9988,27.2712 Q451.5923,27.0015 452.2231,26.4204 Z " fill="#000000"/><text fill="#000000" font-family="sans-serif" font-size="14" lengthAdjust="spacing" textLength="39" x="470.25" y="28.291">Letter</text><line style="stroke:#181818;stroke-width:0.5;" x1="8" x2="939" y1="39" y2="39"/><rect fill="none" height="6" style="stroke:#C82930;stroke-width:1.0;" width="6" x="15" y="49.7441"/><text fill="#000000" font-family="sans-serif" font-size="14" lengthAdjust="spacing" textLength="212" x="27" y="56.5352">words: std::vector&lt;std::string&gt;</text><rect fill="none" height="6" style="stroke:#C82930;stroke-width:1.0;" width="6" x="15" y="66.2324"/><text fill="#000000" font-family="sans-serif" font-size="14" lengthAdjust="spacing" textLength="238" x="27" y="73.0234">lettersAtBottom: std::vector&lt;char&gt;</text><rect fill="none" height="6" style="stroke:#C82930;stroke-width:1.0;" width="6" x="15" y="82.7207"/><text fill="#000000" font-family="sans-serif" font-size="14" lengthAdjust="spacing" textLength="112" x="27" y="89.5117">word: std::string</text><rect fill="none" height="6" style="stroke:#C82930;stroke-width:1.0;" width="6" x="15" y="99.209"/><text fill="#000000" font-family="sans-serif" font-size="14" lengthAdjust="spacing" textLength="164" x="27" y="106">current_word_index: int</text><rect fill="none" height="6" style="stroke:#C82930;stroke-width:1.0;" width="6" x="15" y="115.6973"/><text fill="#000000" font-family="sans-serif" font-size="14" lengthAdjust="spacing" textLength="165" x="27" y="122.4883">current_letter_index: int</text><rect fill="none" height="6" style="stroke:#C82930;stroke-width:1.0;" width="6" x="15" y="132.1855"/><text fill="#000000" font-family="sans-serif" font-size="14" lengthAdjust="spacing" textLength="74" x="27" y="138.9766">letter: char</text><rect fill="none" height="6" style="stroke:#C82930;stroke-width:1.0;" width="6" x="15" y="148.6738"/><text fill="#000000" font-family="sans-serif" font-size="14" lengthAdjust="spacing" textLength="48" x="27" y="155.4648">x: float</text><rect fill="none" height="6" style="stroke:#C82930;stroke-width:1.0;" width="6" x="15" y="165.1621"/><text fill="#000000" font-family="sans-serif" font-size="14" lengthAdjust="spacing" textLength="46" x="27" y="171.9531">y: float</text><rect fill="none" height="6" style="stroke:#C82930;stroke-width:1.0;" width="6" x="15" y="181.6504"/><text fill="#000000" font-family="sans-serif" font-size="14" lengthAdjust="spacing" textLength="80" x="27" y="188.4414">speed: float</text><rect fill="none" height="6" style="stroke:#C82930;stroke-width:1.0;" width="6" x="15" y="198.1387"/><text fill="#000000" font-family="sans-serif" font-size="14" lengthAdjust="spacing" textLength="151" x="27" y="204.9297">texture: SDL_Texture*</text><rect fill="none" height="6" style="stroke:#C82930;stroke-width:1.0;" width="6" x="15" y="214.627"/><text fill="#000000" font-family="sans-serif" font-size="14" lengthAdjust="spacing" textLength="64" x="27" y="221.418">width: int</text><rect fill="none" height="6" style="stroke:#C82930;stroke-width:1.0;" width="6" x="15" y="231.1152"/><text fill="#000000" font-family="sans-serif" font-size="14" lengthAdjust="spacing" textLength="70" x="27" y="237.9063">height: int</text><rect fill="none" height="6" style="stroke:#C82930;stroke-width:1.0;" width="6" x="15" y="247.6035"/><text fill="#000000" font-family="sans-serif" font-size="14" lengthAdjust="spacing" textLength="170" x="27" y="254.3945">renderer: SDL_Renderer*</text><rect fill="none" height="6" style="stroke:#C82930;stroke-width:1.0;" width="6" x="15" y="264.0918"/><text fill="#000000" font-family="sans-serif" font-size="14" lengthAdjust="spacing" textLength="107" x="27" y="270.8828">font: TTF_Font*</text><line style="stroke:#181818;stroke-width:0.5;" x1="8" x2="939" y1="277.8359" y2="277.8359"/><ellipse cx="18" cy="291.5801" fill="#84BE84" rx="3" ry="3" style="stroke:#038048;stroke-width:1.0;"/><text fill="#000000" font-family="sans-serif" font-size="14" lengthAdjust="spacing" textLength="679" x="27" y="295.3711">Letter(index: int, startX: float, startY: float, velocity: float, renderer: SDL_Renderer*, font: TTF_Font*)</text><ellipse cx="18" cy="308.0684" fill="#84BE84" rx="3" ry="3" style="stroke:#038048;stroke-width:1.0;"/><text fill="#000000" font-family="sans-serif" font-size="14" lengthAdjust="spacing" textLength="58" x="27" y="311.8594">~Letter()</text><ellipse cx="18" cy="324.5566" fill="#84BE84" rx="3" ry="3" style="stroke:#038048;stroke-width:1.0;"/><text fill="#000000" font-family="sans-serif" font-size="14" lengthAdjust="spacing" textLength="907" x="27" y="328.3477">update_letter(time: float, screen_height: int, player1: User*, player2: User*, ball_pos_x: float, ball_pos_y: float, ball_radius: float): void</text><ellipse cx="18" cy="341.0449" fill="#84BE84" rx="3" ry="3" style="stroke:#038048;stroke-width:1.0;"/><text fill="#000000" font-family="sans-serif" font-size="14" lengthAdjust="spacing" textLength="263" x="27" y="344.8359">render(renderer: SDL_Renderer*): void</text><ellipse cx="18" cy="357.5332" fill="#84BE84" rx="3" ry="3" style="stroke:#038048;stroke-width:1.0;"/><text fill="#000000" font-family="sans-serif" font-size="14" lengthAdjust="spacing" textLength="504" x="27" y="361.3242">collision_check(ball_pos_x: float, ball_pos_y: float, ball_radius: float): bool</text><ellipse cx="18" cy="374.0215" fill="#84BE84" rx="3" ry="3" style="stroke:#038048;stroke-width:1.0;"/><text fill="#000000" font-family="sans-serif" font-size="14" lengthAdjust="spacing" textLength="121" x="27" y="377.8125">next_letter(): void</text><ellipse cx="18" cy="390.5098" fill="#84BE84" rx="3" ry="3" style="stroke:#038048;stroke-width:1.0;"/><text fill="#000000" font-family="sans-serif" font-size="14" lengthAdjust="spacing" textLength="120" x="27" y="394.3008">next_word(): void</text><ellipse cx="18" cy="406.998" fill="#84BE84" rx="3" ry="3" style="stroke:#038048;stroke-width:1.0;"/><text fill="#000000" font-family="sans-serif" font-size="14" lengthAdjust="spacing" textLength="158" x="27" y="410.7891">reset_word(n: int): void</text><ellipse cx="18" cy="423.4863" fill="#84BE84" rx="3" ry="3" style="stroke:#038048;stroke-width:1.0;"/><text fill="#000000" font-family="sans-serif" font-size="14" lengthAdjust="spacing" textLength="80" x="27" y="427.2773">get_pos_x(): float</text><ellipse cx="18" cy="439.9746" fill="#84BE84" rx="3" ry="3" style="stroke:#038048;stroke-width:1.0;"/><text fill="#000000" font-family="sans-serif" font-size="14" lengthAdjust="spacing" textLength="80" x="27" y="443.7656">get_pos_y(): float</text></g><!--class User--><g id="elem_User"><rect codeLine="30" fill="#F1F1F1" height="48" id="User" rx="2.5" ry="2.5" style="stroke:#181818;stroke-width:0.5;" width="63" x="442" y="527.72"/><ellipse cx="457" cy="543.72" fill="#ADD1B2" rx="11" ry="11" style="stroke:#181818;stroke-width:1.0;"/><path d="M459.4731,549.8631 Q458.8921,550.1619 458.2529,550.3113 Q457.6138,550.4607 456.9082,550.4607 Q454.4014,550.4607 453.0815,548.8089 Q451.7617,547.157 451.7617,544.0359 Q451.7617,540.9065 453.0815,539.2547 Q454.4014,537.6028 456.9082,537.6028 Q457.6138,537.6028 458.2612,537.7522 Q458.9087,537.9016 459.4731,538.2005 L459.4731,540.9231 Q458.8423,540.3421 458.2488,540.0723 Q457.6553,539.8025 457.0244,539.8025 Q455.6797,539.8025 454.9949,540.8692 Q454.3101,541.9358 454.3101,544.0359 Q454.3101,546.1277 454.9949,547.1944 Q455.6797,548.261 457.0244,548.261 Q457.6553,548.261 458.2488,547.9912 Q458.8423,547.7215 459.4731,547.1404 Z " fill="#000000"/><text fill="#000000" font-family="sans-serif" font-size="14" lengthAdjust="spacing" textLength="31" x="471" y="549.011">User</text><line style="stroke:#181818;stroke-width:0.5;" x1="443" x2="504" y1="559.72" y2="559.72"/><line style="stroke:#181818;stroke-width:0.5;" x1="443" x2="504" y1="567.72" y2="567.72"/></g><!--link Letter to User--><g id="link_Letter_User"><path codeLine="33" d="M473.5,450.96 C473.5,481.78 473.5,503.11 473.5,521.33 " fill="none" id="Letter-to-User" style="stroke:#181818;stroke-width:1.0;"/><polygon fill="#181818" points="473.5,527.33,477.5,518.33,473.5,522.33,469.5,518.33,473.5,527.33" style="stroke:#181818;stroke-width:1.0;"/><text fill="#000000" font-family="sans-serif" font-size="13" lengthAdjust="spacing" textLength="65" x="474.5" y="494.2884">references</text></g><!--SRC=[fLF1RW8X4BtlLt1ShHxQ8sbCsZIUFBKsqHD165rIX0tCMZTD- -q55jVLn9CttdipysO649fxJnQ028xy58HClwsJdXAFaj832BJkEPqzEcLsinYYKxX_mLUBQFUNmQBYRdOgbAKkDvAYSGuCiYWoPIGSAL46Xr9N_KhiI4fYzOY3ijMM9wqTd7qD80SOuOYD0qe-tXPisO5nwav9hFho5QXTXJqCVKXmqI-clMUKyhRMXBZbSixcuJGk0lVGhQyyTpm9OtE7gzn8XkiU7a1ReR3jYHk64t9bDufsVzalWQQM724lhKIrXxEfS0263MQRa5hp5jmZ9Py-rU_mKuytN6jMMy-EVPcUQYyfnwLgVEP6b1oiah6ZRfRonaY3G66rLbvPmqG5ugkymtjZhOubJRZXqou6JecEJwwywDD3PatQpa3R0QvYxEaTHM9z9dwBGgIF4xSMlat0-GjDfxD4qd2bsp2m4U2BVm00]--></g></svg>