<?xml version="1.0" encoding="us-ascii" standalone="no"?><svg xmlns="http://www.w3.org/2000/svg" xmlns:xlink="http://www.w3.org/1999/xlink" contentStyleType="text/css" height="648px" preserveAspectRatio="none" style="width:2031px;height:648px;background:#FFFFFF;" version="1.1" viewBox="0 0 2031 648" width="2031px" zoomAndPan="magnify"><defs/><g><!--class Page Base--><g id="elem_Page Base"><rect codeLine="3" fill="#F1F1F1" height="130.4414" id="Page Base" rx="2.5" ry="2.5" style="stroke:#181818;stroke-width:0.5;" width="219" x="887" y="7"/><ellipse cx="958.25" cy="23" fill="#A9DCDF" rx="11" ry="11" style="stroke:#181818;stroke-width:1.0;"/><path d="M958.1133,18.3481 L956.9595,23.4199 L959.2754,23.4199 Z M956.6191,16.1069 L959.6157,16.1069 L962.9609,28.5 L960.5122,28.5 L959.7485,25.437 L956.4697,25.437 L955.7227,28.5 L953.2739,28.5 Z " fill="#000000"/><text fill="#000000" font-family="sans-serif" font-size="14" font-style="italic" lengthAdjust="spacing" textLength="68" x="978.75" y="28.291">Page Base</text><line style="stroke:#181818;stroke-width:0.5;" x1="888" x2="1105" y1="39" y2="39"/><polygon fill="none" points="898,47.7441,902,51.7441,898,55.7441,894,51.7441" style="stroke:#B38D22;stroke-width:1.0;"/><text fill="#000000" font-family="sans-serif" font-size="14" lengthAdjust="spacing" textLength="166" x="907" y="56.5352">SDL_Renderer* renderer</text><polygon fill="none" points="898,64.2324,902,68.2324,898,72.2324,894,68.2324" style="stroke:#B38D22;stroke-width:1.0;"/><text fill="#000000" font-family="sans-serif" font-size="14" lengthAdjust="spacing" textLength="116" x="907" y="73.0234">TTF_Font* police</text><polygon fill="none" points="898,80.7207,902,84.7207,898,88.7207,894,84.7207" style="stroke:#B38D22;stroke-width:1.0;"/><text fill="#000000" font-family="sans-serif" font-size="14" lengthAdjust="spacing" textLength="193" x="907" y="89.5117">SDL_Texture* texture_menu</text><line style="stroke:#181818;stroke-width:0.5;" x1="888" x2="1105" y1="96.4648" y2="96.4648"/><ellipse cx="898" cy="110.209" fill="#84BE84" rx="3" ry="3" style="stroke:#038048;stroke-width:1.0;"/><text fill="#000000" font-family="sans-serif" font-size="14" lengthAdjust="spacing" textLength="105" x="907" y="114">render_object()</text><ellipse cx="898" cy="126.6973" fill="#84BE84" rx="3" ry="3" style="stroke:#038048;stroke-width:1.0;"/><text fill="#000000" font-family="sans-serif" font-size="14" lengthAdjust="spacing" textLength="112" x="907" y="130.4883">action_handler()</text></g><!--class page_2b_1t--><g id="elem_page_2b_1t"><rect codeLine="12" fill="#F1F1F1" height="262.3477" id="page_2b_1t" rx="2.5" ry="2.5" style="stroke:#181818;stroke-width:0.5;" width="297" x="7" y="230.41"/><ellipse cx="111.25" cy="246.41" fill="#ADD1B2" rx="11" ry="11" style="stroke:#181818;stroke-width:1.0;"/><path d="M113.7231,252.5531 Q113.1421,252.8519 112.5029,253.0013 Q111.8638,253.1507 111.1582,253.1507 Q108.6514,253.1507 107.3315,251.4989 Q106.0117,249.847 106.0117,246.7259 Q106.0117,243.5965 107.3315,241.9447 Q108.6514,240.2928 111.1582,240.2928 Q111.8638,240.2928 112.5112,240.4422 Q113.1587,240.5916 113.7231,240.8905 L113.7231,243.6131 Q113.0923,243.0321 112.4988,242.7623 Q111.9053,242.4925 111.2744,242.4925 Q109.9297,242.4925 109.2449,243.5592 Q108.5601,244.6258 108.5601,246.7259 Q108.5601,248.8177 109.2449,249.8844 Q109.9297,250.951 111.2744,250.951 Q111.9053,250.951 112.4988,250.6812 Q113.0923,250.4115 113.7231,249.8304 Z " fill="#000000"/><text fill="#000000" font-family="sans-serif" font-size="14" lengthAdjust="spacing" textLength="80" x="131.75" y="251.701">page_2b_1t</text><line style="stroke:#181818;stroke-width:0.5;" x1="8" x2="303" y1="262.41" y2="262.41"/><rect fill="none" height="6" style="stroke:#C82930;stroke-width:1.0;" width="6" x="15" y="273.1541"/><text fill="#000000" font-family="sans-serif" font-size="14" lengthAdjust="spacing" textLength="167" x="27" y="279.9452">SDL_Rect button_lets_go</text><rect fill="none" height="6" style="stroke:#C82930;stroke-width:1.0;" width="6" x="15" y="289.6424"/><text fill="#000000" font-family="sans-serif" font-size="14" lengthAdjust="spacing" textLength="150" x="27" y="296.4334">SDL_Rect button_back</text><rect fill="none" height="6" style="stroke:#C82930;stroke-width:1.0;" width="6" x="15" y="306.1307"/><text fill="#000000" font-family="sans-serif" font-size="14" lengthAdjust="spacing" textLength="103" x="27" y="312.9217">bool next_view</text><rect fill="none" height="6" style="stroke:#C82930;stroke-width:1.0;" width="6" x="15" y="322.619"/><text fill="#000000" font-family="sans-serif" font-size="14" lengthAdjust="spacing" textLength="92" x="27" y="329.41">bool go_back</text><rect fill="none" height="6" style="stroke:#C82930;stroke-width:1.0;" width="6" x="15" y="339.1073"/><text fill="#000000" font-family="sans-serif" font-size="14" lengthAdjust="spacing" textLength="84" x="27" y="345.8983">int notice_id</text><line style="stroke:#181818;stroke-width:0.5;" x1="8" x2="303" y1="352.8514" y2="352.8514"/><ellipse cx="18" cy="366.5955" fill="#84BE84" rx="3" ry="3" style="stroke:#038048;stroke-width:1.0;"/><text fill="#000000" font-family="sans-serif" font-size="14" lengthAdjust="spacing" textLength="271" x="27" y="370.3866">page_2b_1t(SDL_Renderer*, TTF_Font*)</text><ellipse cx="18" cy="383.0838" fill="#84BE84" rx="3" ry="3" style="stroke:#038048;stroke-width:1.0;"/><text fill="#000000" font-family="sans-serif" font-size="14" lengthAdjust="spacing" textLength="99" x="27" y="386.8748">~page_2b_1t()</text><ellipse cx="18" cy="399.5721" fill="#84BE84" rx="3" ry="3" style="stroke:#038048;stroke-width:1.0;"/><text fill="#000000" font-family="sans-serif" font-size="14" lengthAdjust="spacing" textLength="142" x="27" y="403.3631">bool get_next_view()</text><ellipse cx="18" cy="416.0604" fill="#84BE84" rx="3" ry="3" style="stroke:#038048;stroke-width:1.0;"/><text fill="#000000" font-family="sans-serif" font-size="14" lengthAdjust="spacing" textLength="131" x="27" y="419.8514">bool get_go_back()</text><ellipse cx="18" cy="432.5487" fill="#84BE84" rx="3" ry="3" style="stroke:#038048;stroke-width:1.0;"/><text fill="#000000" font-family="sans-serif" font-size="14" lengthAdjust="spacing" textLength="123" x="27" y="436.3397">int get_notice_id()</text><ellipse cx="18" cy="449.037" fill="#84BE84" rx="3" ry="3" style="stroke:#038048;stroke-width:1.0;"/><text fill="#000000" font-family="sans-serif" font-size="14" lengthAdjust="spacing" textLength="150" x="27" y="452.828">void set_notice_id(int)</text><ellipse cx="18" cy="465.5252" fill="#84BE84" rx="3" ry="3" style="stroke:#038048;stroke-width:1.0;"/><text fill="#000000" font-family="sans-serif" font-size="14" lengthAdjust="spacing" textLength="138" x="27" y="469.3162">void render_object()</text><ellipse cx="18" cy="482.0135" fill="#84BE84" rx="3" ry="3" style="stroke:#038048;stroke-width:1.0;"/><text fill="#000000" font-family="sans-serif" font-size="14" lengthAdjust="spacing" textLength="267" x="27" y="485.8045">bool action_handler(const SDL_Event&amp;)</text></g><g id="elem_GMN4"><path d="M19,593.39 L19,634.0111 A0,0 0 0 0 19,634.0111 L290,634.0111 A0,0 0 0 0 290,634.0111 L290,603.39 L280,593.39 L158.58,593.39 L154.98,493.14 L150.58,593.39 L19,593.39 A0,0 0 0 0 19,593.39 " fill="#FEFFDD" style="stroke:#181818;stroke-width:0.5;"/><path d="M280,593.39 L280,603.39 L290,603.39 L280,593.39 " fill="#FEFFDD" style="stroke:#181818;stroke-width:0.5;"/><text fill="#000000" font-family="sans-serif" font-size="13" lengthAdjust="spacing" textLength="250" x="25" y="610.9584">Notice screen with 2 buttons and 1 title</text><text fill="#000000" font-family="sans-serif" font-size="13" lengthAdjust="spacing" textLength="244" x="25" y="626.2689">Used for instructions and notifications</text></g><!--class page_3b_1t--><g id="elem_page_3b_1t"><rect codeLine="34" fill="#F1F1F1" height="245.8594" id="page_3b_1t" rx="2.5" ry="2.5" style="stroke:#181818;stroke-width:0.5;" width="297" x="340" y="238.66"/><ellipse cx="444.25" cy="254.66" fill="#ADD1B2" rx="11" ry="11" style="stroke:#181818;stroke-width:1.0;"/><path d="M446.7231,260.8031 Q446.1421,261.1019 445.5029,261.2513 Q444.8638,261.4007 444.1582,261.4007 Q441.6514,261.4007 440.3315,259.7489 Q439.0117,258.097 439.0117,254.9759 Q439.0117,251.8465 440.3315,250.1947 Q441.6514,248.5428 444.1582,248.5428 Q444.8638,248.5428 445.5112,248.6922 Q446.1587,248.8416 446.7231,249.1405 L446.7231,251.8631 Q446.0923,251.2821 445.4988,251.0123 Q444.9053,250.7425 444.2744,250.7425 Q442.9297,250.7425 442.2449,251.8092 Q441.5601,252.8758 441.5601,254.9759 Q441.5601,257.0677 442.2449,258.1344 Q442.9297,259.201 444.2744,259.201 Q444.9053,259.201 445.4988,258.9312 Q446.0923,258.6615 446.7231,258.0804 Z " fill="#000000"/><text fill="#000000" font-family="sans-serif" font-size="14" lengthAdjust="spacing" textLength="80" x="464.75" y="259.951">page_3b_1t</text><line style="stroke:#181818;stroke-width:0.5;" x1="341" x2="636" y1="270.66" y2="270.66"/><rect fill="none" height="6" style="stroke:#C82930;stroke-width:1.0;" width="6" x="348" y="281.4041"/><text fill="#000000" font-family="sans-serif" font-size="14" lengthAdjust="spacing" textLength="131" x="360" y="288.1952">int selected_button</text><rect fill="none" height="6" style="stroke:#C82930;stroke-width:1.0;" width="6" x="348" y="297.8924"/><text fill="#000000" font-family="sans-serif" font-size="14" lengthAdjust="spacing" textLength="97" x="360" y="304.6834">int mode_type</text><rect fill="none" height="6" style="stroke:#C82930;stroke-width:1.0;" width="6" x="348" y="314.3807"/><text fill="#000000" font-family="sans-serif" font-size="14" lengthAdjust="spacing" textLength="127" x="360" y="321.1717">SDL_Rect button_1</text><rect fill="none" height="6" style="stroke:#C82930;stroke-width:1.0;" width="6" x="348" y="330.869"/><text fill="#000000" font-family="sans-serif" font-size="14" lengthAdjust="spacing" textLength="127" x="360" y="337.66">SDL_Rect button_2</text><rect fill="none" height="6" style="stroke:#C82930;stroke-width:1.0;" width="6" x="348" y="347.3573"/><text fill="#000000" font-family="sans-serif" font-size="14" lengthAdjust="spacing" textLength="127" x="360" y="354.1483">SDL_Rect button_3</text><line style="stroke:#181818;stroke-width:0.5;" x1="341" x2="636" y1="361.1014" y2="361.1014"/><ellipse cx="351" cy="374.8455" fill="#84BE84" rx="3" ry="3" style="stroke:#038048;stroke-width:1.0;"/><text fill="#000000" font-family="sans-serif" font-size="14" lengthAdjust="spacing" textLength="271" x="360" y="378.6366">page_3b_1t(SDL_Renderer*, TTF_Font*)</text><ellipse cx="351" cy="391.3338" fill="#84BE84" rx="3" ry="3" style="stroke:#038048;stroke-width:1.0;"/><text fill="#000000" font-family="sans-serif" font-size="14" lengthAdjust="spacing" textLength="99" x="360" y="395.1248">~page_3b_1t()</text><ellipse cx="351" cy="407.8221" fill="#84BE84" rx="3" ry="3" style="stroke:#038048;stroke-width:1.0;"/><text fill="#000000" font-family="sans-serif" font-size="14" lengthAdjust="spacing" textLength="169" x="360" y="411.6131">int get_selected_option()</text><ellipse cx="351" cy="424.3104" fill="#84BE84" rx="3" ry="3" style="stroke:#038048;stroke-width:1.0;"/><text fill="#000000" font-family="sans-serif" font-size="14" lengthAdjust="spacing" textLength="267" x="360" y="428.1014">bool action_handler(const SDL_Event&amp;)</text><ellipse cx="351" cy="440.7987" fill="#84BE84" rx="3" ry="3" style="stroke:#038048;stroke-width:1.0;"/><text fill="#000000" font-family="sans-serif" font-size="14" lengthAdjust="spacing" textLength="138" x="360" y="444.5897">void render_object()</text><ellipse cx="351" cy="457.287" fill="#84BE84" rx="3" ry="3" style="stroke:#038048;stroke-width:1.0;"/><text fill="#000000" font-family="sans-serif" font-size="14" lengthAdjust="spacing" textLength="136" x="360" y="461.078">int get_mode_type()</text><ellipse cx="351" cy="473.7752" fill="#84BE84" rx="3" ry="3" style="stroke:#038048;stroke-width:1.0;"/><text fill="#000000" font-family="sans-serif" font-size="14" lengthAdjust="spacing" textLength="163" x="360" y="477.5662">void set_mode_type(int)</text></g><g id="elem_GMN8"><path d="M325.5,593.39 L325.5,634.0111 A0,0 0 0 0 325.5,634.0111 L613.5,634.0111 A0,0 0 0 0 613.5,634.0111 L613.5,603.39 L603.5,593.39 L475,593.39 L479.22,484.72 L467,593.39 L325.5,593.39 A0,0 0 0 0 325.5,593.39 " fill="#FEFFDD" style="stroke:#181818;stroke-width:0.5;"/><path d="M603.5,593.39 L603.5,603.39 L613.5,603.39 L603.5,593.39 " fill="#FEFFDD" style="stroke:#181818;stroke-width:0.5;"/><text fill="#000000" font-family="sans-serif" font-size="13" lengthAdjust="spacing" textLength="245" x="331.5" y="610.9584">Middle menu with 3 buttons and 1 title</text><text fill="#000000" font-family="sans-serif" font-size="13" lengthAdjust="spacing" textLength="267" x="331.5" y="626.2689">Used for ball type or AI difficulty selection</text></g><!--class page_4b_1t--><g id="elem_page_4b_1t"><rect codeLine="55" fill="#F1F1F1" height="262.3477" id="page_4b_1t" rx="2.5" ry="2.5" style="stroke:#181818;stroke-width:0.5;" width="297" x="672" y="230.41"/><ellipse cx="776.25" cy="246.41" fill="#ADD1B2" rx="11" ry="11" style="stroke:#181818;stroke-width:1.0;"/><path d="M778.7231,252.5531 Q778.1421,252.8519 777.5029,253.0013 Q776.8638,253.1507 776.1582,253.1507 Q773.6514,253.1507 772.3315,251.4989 Q771.0117,249.847 771.0117,246.7259 Q771.0117,243.5965 772.3315,241.9447 Q773.6514,240.2928 776.1582,240.2928 Q776.8638,240.2928 777.5112,240.4422 Q778.1587,240.5916 778.7231,240.8905 L778.7231,243.6131 Q778.0923,243.0321 777.4988,242.7623 Q776.9053,242.4925 776.2744,242.4925 Q774.9297,242.4925 774.2449,243.5592 Q773.5601,244.6258 773.5601,246.7259 Q773.5601,248.8177 774.2449,249.8844 Q774.9297,250.951 776.2744,250.951 Q776.9053,250.951 777.4988,250.6812 Q778.0923,250.4115 778.7231,249.8304 Z " fill="#000000"/><text fill="#000000" font-family="sans-serif" font-size="14" lengthAdjust="spacing" textLength="80" x="796.75" y="251.701">page_4b_1t</text><line style="stroke:#181818;stroke-width:0.5;" x1="673" x2="968" y1="262.41" y2="262.41"/><rect fill="none" height="6" style="stroke:#C82930;stroke-width:1.0;" width="6" x="680" y="273.1541"/><text fill="#000000" font-family="sans-serif" font-size="14" lengthAdjust="spacing" textLength="81" x="692" y="279.9452">int mode_id</text><rect fill="none" height="6" style="stroke:#C82930;stroke-width:1.0;" width="6" x="680" y="289.6424"/><text fill="#000000" font-family="sans-serif" font-size="14" lengthAdjust="spacing" textLength="106" x="692" y="296.4334">bool exit_game</text><rect fill="none" height="6" style="stroke:#C82930;stroke-width:1.0;" width="6" x="680" y="306.1307"/><text fill="#000000" font-family="sans-serif" font-size="14" lengthAdjust="spacing" textLength="176" x="692" y="312.9217">SDL_Rect button_ai_mode</text><rect fill="none" height="6" style="stroke:#C82930;stroke-width:1.0;" width="6" x="680" y="322.619"/><text fill="#000000" font-family="sans-serif" font-size="14" lengthAdjust="spacing" textLength="245" x="692" y="329.41">SDL_Rect button_two_players_mode</text><rect fill="none" height="6" style="stroke:#C82930;stroke-width:1.0;" width="6" x="680" y="339.1073"/><text fill="#000000" font-family="sans-serif" font-size="14" lengthAdjust="spacing" textLength="228" x="692" y="345.8983">SDL_Rect button_storytime_mode</text><rect fill="none" height="6" style="stroke:#C82930;stroke-width:1.0;" width="6" x="680" y="355.5955"/><text fill="#000000" font-family="sans-serif" font-size="14" lengthAdjust="spacing" textLength="187" x="692" y="362.3866">SDL_Rect button_fun_mode</text><rect fill="none" height="6" style="stroke:#C82930;stroke-width:1.0;" width="6" x="680" y="372.0838"/><text fill="#000000" font-family="sans-serif" font-size="14" lengthAdjust="spacing" textLength="144" x="692" y="378.8748">SDL_Rect button_exit</text><line style="stroke:#181818;stroke-width:0.5;" x1="673" x2="968" y1="385.828" y2="385.828"/><ellipse cx="683" cy="399.5721" fill="#84BE84" rx="3" ry="3" style="stroke:#038048;stroke-width:1.0;"/><text fill="#000000" font-family="sans-serif" font-size="14" lengthAdjust="spacing" textLength="271" x="692" y="403.3631">page_4b_1t(SDL_Renderer*, TTF_Font*)</text><ellipse cx="683" cy="416.0604" fill="#84BE84" rx="3" ry="3" style="stroke:#038048;stroke-width:1.0;"/><text fill="#000000" font-family="sans-serif" font-size="14" lengthAdjust="spacing" textLength="99" x="692" y="419.8514">~page_4b_1t()</text><ellipse cx="683" cy="432.5487" fill="#84BE84" rx="3" ry="3" style="stroke:#038048;stroke-width:1.0;"/><text fill="#000000" font-family="sans-serif" font-size="14" lengthAdjust="spacing" textLength="267" x="692" y="436.3397">bool action_handler(const SDL_Event&amp;)</text><ellipse cx="683" cy="449.037" fill="#84BE84" rx="3" ry="3" style="stroke:#038048;stroke-width:1.0;"/><text fill="#000000" font-family="sans-serif" font-size="14" lengthAdjust="spacing" textLength="138" x="692" y="452.828">void render_object()</text><ellipse cx="683" cy="465.5252" fill="#84BE84" rx="3" ry="3" style="stroke:#038048;stroke-width:1.0;"/><text fill="#000000" font-family="sans-serif" font-size="14" lengthAdjust="spacing" textLength="145" x="692" y="469.3162">bool get_exit_game()</text><ellipse cx="683" cy="482.0135" fill="#84BE84" rx="3" ry="3" style="stroke:#038048;stroke-width:1.0;"/><text fill="#000000" font-family="sans-serif" font-size="14" lengthAdjust="spacing" textLength="120" x="692" y="485.8045">int get_mode_id()</text></g><g id="elem_GMN12"><path d="M649,585.74 L649,641.6716 A0,0 0 0 0 649,641.6716 L968,641.6716 A0,0 0 0 0 968,641.6716 L968,595.74 L958,585.74 L813.8,585.74 L814.24,493.14 L805.8,585.74 L649,585.74 A0,0 0 0 0 649,585.74 " fill="#FEFFDD" style="stroke:#181818;stroke-width:0.5;"/><path d="M958,585.74 L958,595.74 L968,595.74 L958,585.74 " fill="#FEFFDD" style="stroke:#181818;stroke-width:0.5;"/><text fill="#000000" font-family="sans-serif" font-size="13" lengthAdjust="spacing" textLength="298" x="655" y="603.3084">Mode selection menu with 4 buttons and 1 title</text><text fill="#000000" font-family="sans-serif" font-size="13" lengthAdjust="spacing" textLength="241" x="655" y="618.6189">For selecting between AI, Two players,</text><text fill="#000000" font-family="sans-serif" font-size="13" lengthAdjust="spacing" textLength="147" x="655" y="633.9295">Storytime, or Fun mode</text></g><!--class page_3b_0t--><g id="elem_page_3b_0t"><rect codeLine="78" fill="#F1F1F1" height="311.8125" id="page_3b_0t" rx="2.5" ry="2.5" style="stroke:#181818;stroke-width:0.5;" width="336" x="1004.5" y="205.68"/><ellipse cx="1128.25" cy="221.68" fill="#ADD1B2" rx="11" ry="11" style="stroke:#181818;stroke-width:1.0;"/><path d="M1130.7231,227.8231 Q1130.1421,228.1219 1129.5029,228.2713 Q1128.8638,228.4207 1128.1582,228.4207 Q1125.6514,228.4207 1124.3315,226.7689 Q1123.0117,225.117 1123.0117,221.9959 Q1123.0117,218.8665 1124.3315,217.2147 Q1125.6514,215.5628 1128.1582,215.5628 Q1128.8638,215.5628 1129.5112,215.7122 Q1130.1587,215.8616 1130.7231,216.1605 L1130.7231,218.8831 Q1130.0923,218.3021 1129.4988,218.0323 Q1128.9053,217.7625 1128.2744,217.7625 Q1126.9297,217.7625 1126.2449,218.8292 Q1125.5601,219.8958 1125.5601,221.9959 Q1125.5601,224.0877 1126.2449,225.1544 Q1126.9297,226.221 1128.2744,226.221 Q1128.9053,226.221 1129.4988,225.9512 Q1130.0923,225.6815 1130.7231,225.1004 Z " fill="#000000"/><text fill="#000000" font-family="sans-serif" font-size="14" lengthAdjust="spacing" textLength="80" x="1148.75" y="226.971">page_3b_0t</text><line style="stroke:#181818;stroke-width:0.5;" x1="1005.5" x2="1339.5" y1="237.68" y2="237.68"/><rect fill="none" height="6" style="stroke:#C82930;stroke-width:1.0;" width="6" x="1012.5" y="248.4241"/><text fill="#000000" font-family="sans-serif" font-size="14" lengthAdjust="spacing" textLength="146" x="1024.5" y="255.2152">bool start_new_game</text><rect fill="none" height="6" style="stroke:#C82930;stroke-width:1.0;" width="6" x="1012.5" y="264.9124"/><text fill="#000000" font-family="sans-serif" font-size="14" lengthAdjust="spacing" textLength="107" x="1024.5" y="271.7034">bool exit_mode</text><rect fill="none" height="6" style="stroke:#C82930;stroke-width:1.0;" width="6" x="1012.5" y="281.4007"/><text fill="#000000" font-family="sans-serif" font-size="14" lengthAdjust="spacing" textLength="140" x="1024.5" y="288.1917">bool continue_game</text><rect fill="none" height="6" style="stroke:#C82930;stroke-width:1.0;" width="6" x="1012.5" y="297.889"/><text fill="#000000" font-family="sans-serif" font-size="14" lengthAdjust="spacing" textLength="149" x="1024.5" y="304.68">bool saved_file_exists</text><rect fill="none" height="6" style="stroke:#C82930;stroke-width:1.0;" width="6" x="1012.5" y="314.3773"/><text fill="#000000" font-family="sans-serif" font-size="14" lengthAdjust="spacing" textLength="149" x="1024.5" y="321.1683">SDL_Rect button_start</text><rect fill="none" height="6" style="stroke:#C82930;stroke-width:1.0;" width="6" x="1012.5" y="330.8655"/><text fill="#000000" font-family="sans-serif" font-size="14" lengthAdjust="spacing" textLength="144" x="1024.5" y="337.6566">SDL_Rect button_exit</text><rect fill="none" height="6" style="stroke:#C82930;stroke-width:1.0;" width="6" x="1012.5" y="347.3538"/><text fill="#000000" font-family="sans-serif" font-size="14" lengthAdjust="spacing" textLength="178" x="1024.5" y="354.1448">SDL_Rect button_continue</text><line style="stroke:#181818;stroke-width:0.5;" x1="1005.5" x2="1339.5" y1="361.098" y2="361.098"/><ellipse cx="1015.5" cy="374.8421" fill="#84BE84" rx="3" ry="3" style="stroke:#038048;stroke-width:1.0;"/><text fill="#000000" font-family="sans-serif" font-size="14" lengthAdjust="spacing" textLength="271" x="1024.5" y="378.6331">page_3b_0t(SDL_Renderer*, TTF_Font*)</text><ellipse cx="1015.5" cy="391.3304" fill="#84BE84" rx="3" ry="3" style="stroke:#038048;stroke-width:1.0;"/><text fill="#000000" font-family="sans-serif" font-size="14" lengthAdjust="spacing" textLength="99" x="1024.5" y="395.1214">~page_3b_0t()</text><ellipse cx="1015.5" cy="407.8187" fill="#84BE84" rx="3" ry="3" style="stroke:#038048;stroke-width:1.0;"/><text fill="#000000" font-family="sans-serif" font-size="14" lengthAdjust="spacing" textLength="267" x="1024.5" y="411.6097">bool action_handler(const SDL_Event&amp;)</text><ellipse cx="1015.5" cy="424.307" fill="#84BE84" rx="3" ry="3" style="stroke:#038048;stroke-width:1.0;"/><text fill="#000000" font-family="sans-serif" font-size="14" lengthAdjust="spacing" textLength="310" x="1024.5" y="428.098">void render_object(int, const std::string&amp;, int)</text><ellipse cx="1015.5" cy="440.7952" fill="#84BE84" rx="3" ry="3" style="stroke:#038048;stroke-width:1.0;"/><text fill="#000000" font-family="sans-serif" font-size="14" lengthAdjust="spacing" textLength="122" x="1024.5" y="444.5862">bool get_started()</text><ellipse cx="1015.5" cy="457.2835" fill="#84BE84" rx="3" ry="3" style="stroke:#038048;stroke-width:1.0;"/><text fill="#000000" font-family="sans-serif" font-size="14" lengthAdjust="spacing" textLength="146" x="1024.5" y="461.0745">bool get_exit_mode()</text><ellipse cx="1015.5" cy="473.7718" fill="#84BE84" rx="3" ry="3" style="stroke:#038048;stroke-width:1.0;"/><text fill="#000000" font-family="sans-serif" font-size="14" lengthAdjust="spacing" textLength="188" x="1024.5" y="477.5628">bool get_saved_file_exists()</text><ellipse cx="1015.5" cy="490.2601" fill="#84BE84" rx="3" ry="3" style="stroke:#038048;stroke-width:1.0;"/><text fill="#000000" font-family="sans-serif" font-size="14" lengthAdjust="spacing" textLength="179" x="1024.5" y="494.0511">bool get_continue_game()</text><ellipse cx="1015.5" cy="506.7484" fill="#84BE84" rx="3" ry="3" style="stroke:#038048;stroke-width:1.0;"/><text fill="#000000" font-family="sans-serif" font-size="14" lengthAdjust="spacing" textLength="184" x="1024.5" y="510.5394">void set_saved_file_exists()</text></g><g id="elem_GMN16"><path d="M1003,585.74 L1003,641.6716 A0,0 0 0 0 1003,641.6716 L1344,641.6716 A0,0 0 0 0 1344,641.6716 L1344,595.74 L1334,585.74 L1177.39,585.74 L1173.12,517.79 L1169.39,585.74 L1003,585.74 A0,0 0 0 0 1003,585.74 " fill="#FEFFDD" style="stroke:#181818;stroke-width:0.5;"/><path d="M1334,585.74 L1334,595.74 L1344,595.74 L1334,585.74 " fill="#FEFFDD" style="stroke:#181818;stroke-width:0.5;"/><text fill="#000000" font-family="sans-serif" font-size="13" lengthAdjust="spacing" textLength="241" x="1009" y="603.3084">Main menu with 3 buttons and no title</text><text fill="#000000" font-family="sans-serif" font-size="13" lengthAdjust="spacing" textLength="320" x="1009" y="618.6189">For starting a new game, continuing a saved game,</text><text fill="#000000" font-family="sans-serif" font-size="13" lengthAdjust="spacing" textLength="178" x="1009" y="633.9295">or exiting to mode selection</text></g><!--class page_3b--><g id="elem_page_3b"><rect codeLine="104" fill="#F1F1F1" height="328.3008" id="page_3b" rx="2.5" ry="2.5" style="stroke:#181818;stroke-width:0.5;" width="293" x="1391" y="197.44"/><ellipse cx="1503.75" cy="213.44" fill="#ADD1B2" rx="11" ry="11" style="stroke:#181818;stroke-width:1.0;"/><path d="M1506.2231,219.5831 Q1505.6421,219.8819 1505.0029,220.0313 Q1504.3638,220.1807 1503.6582,220.1807 Q1501.1514,220.1807 1499.8315,218.5289 Q1498.5117,216.877 1498.5117,213.7559 Q1498.5117,210.6265 1499.8315,208.9747 Q1501.1514,207.3228 1503.6582,207.3228 Q1504.3638,207.3228 1505.0112,207.4722 Q1505.6587,207.6216 1506.2231,207.9205 L1506.2231,210.6431 Q1505.5923,210.0621 1504.9988,209.7923 Q1504.4053,209.5225 1503.7744,209.5225 Q1502.4297,209.5225 1501.7449,210.5892 Q1501.0601,211.6558 1501.0601,213.7559 Q1501.0601,215.8477 1501.7449,216.9144 Q1502.4297,217.981 1503.7744,217.981 Q1504.4053,217.981 1504.9988,217.7112 Q1505.5923,217.4415 1506.2231,216.8604 Z " fill="#000000"/><text fill="#000000" font-family="sans-serif" font-size="14" lengthAdjust="spacing" textLength="59" x="1524.25" y="218.731">page_3b</text><line style="stroke:#181818;stroke-width:0.5;" x1="1392" x2="1683" y1="229.44" y2="229.44"/><rect fill="none" height="6" style="stroke:#C82930;stroke-width:1.0;" width="6" x="1399" y="240.1841"/><text fill="#000000" font-family="sans-serif" font-size="14" lengthAdjust="spacing" textLength="102" x="1411" y="246.9752">bool mResume</text><rect fill="none" height="6" style="stroke:#C82930;stroke-width:1.0;" width="6" x="1399" y="256.6724"/><text fill="#000000" font-family="sans-serif" font-size="14" lengthAdjust="spacing" textLength="79" x="1411" y="263.4634">bool mSave</text><rect fill="none" height="6" style="stroke:#C82930;stroke-width:1.0;" width="6" x="1399" y="273.1607"/><text fill="#000000" font-family="sans-serif" font-size="14" lengthAdjust="spacing" textLength="74" x="1411" y="279.9517">bool mExit</text><rect fill="none" height="6" style="stroke:#C82930;stroke-width:1.0;" width="6" x="1399" y="289.649"/><text fill="#000000" font-family="sans-serif" font-size="14" lengthAdjust="spacing" textLength="131" x="1411" y="296.44">int selected_button</text><rect fill="none" height="6" style="stroke:#C82930;stroke-width:1.0;" width="6" x="1399" y="306.1373"/><text fill="#000000" font-family="sans-serif" font-size="14" lengthAdjust="spacing" textLength="97" x="1411" y="312.9283">int mode_type</text><rect fill="none" height="6" style="stroke:#C82930;stroke-width:1.0;" width="6" x="1399" y="322.6255"/><text fill="#000000" font-family="sans-serif" font-size="14" lengthAdjust="spacing" textLength="177" x="1411" y="329.4166">SDL_Rect mResumeButton</text><rect fill="none" height="6" style="stroke:#C82930;stroke-width:1.0;" width="6" x="1399" y="339.1138"/><text fill="#000000" font-family="sans-serif" font-size="14" lengthAdjust="spacing" textLength="154" x="1411" y="345.9048">SDL_Rect mSaveButton</text><rect fill="none" height="6" style="stroke:#C82930;stroke-width:1.0;" width="6" x="1399" y="355.6021"/><text fill="#000000" font-family="sans-serif" font-size="14" lengthAdjust="spacing" textLength="144" x="1411" y="362.3931">SDL_Rect button_exit</text><line style="stroke:#181818;stroke-width:0.5;" x1="1392" x2="1683" y1="369.3462" y2="369.3462"/><ellipse cx="1402" cy="383.0904" fill="#84BE84" rx="3" ry="3" style="stroke:#038048;stroke-width:1.0;"/><text fill="#000000" font-family="sans-serif" font-size="14" lengthAdjust="spacing" textLength="250" x="1411" y="386.8814">page_3b(SDL_Renderer*, TTF_Font*)</text><ellipse cx="1402" cy="399.5787" fill="#84BE84" rx="3" ry="3" style="stroke:#038048;stroke-width:1.0;"/><text fill="#000000" font-family="sans-serif" font-size="14" lengthAdjust="spacing" textLength="78" x="1411" y="403.3697">~page_3b()</text><ellipse cx="1402" cy="416.067" fill="#84BE84" rx="3" ry="3" style="stroke:#038048;stroke-width:1.0;"/><text fill="#000000" font-family="sans-serif" font-size="14" lengthAdjust="spacing" textLength="138" x="1411" y="419.858">void render_object()</text><ellipse cx="1402" cy="432.5552" fill="#84BE84" rx="3" ry="3" style="stroke:#038048;stroke-width:1.0;"/><text fill="#000000" font-family="sans-serif" font-size="14" lengthAdjust="spacing" textLength="267" x="1411" y="436.3462">bool action_handler(const SDL_Event&amp;)</text><ellipse cx="1402" cy="449.0435" fill="#84BE84" rx="3" ry="3" style="stroke:#038048;stroke-width:1.0;"/><text fill="#000000" font-family="sans-serif" font-size="14" lengthAdjust="spacing" textLength="147" x="1411" y="452.8345">bool ShouldResume()</text><ellipse cx="1402" cy="465.5318" fill="#84BE84" rx="3" ry="3" style="stroke:#038048;stroke-width:1.0;"/><text fill="#000000" font-family="sans-serif" font-size="14" lengthAdjust="spacing" textLength="124" x="1411" y="469.3228">bool ShouldSave()</text><ellipse cx="1402" cy="482.0201" fill="#84BE84" rx="3" ry="3" style="stroke:#038048;stroke-width:1.0;"/><text fill="#000000" font-family="sans-serif" font-size="14" lengthAdjust="spacing" textLength="146" x="1411" y="485.8111">bool get_exit_mode()</text><ellipse cx="1402" cy="498.5084" fill="#84BE84" rx="3" ry="3" style="stroke:#038048;stroke-width:1.0;"/><text fill="#000000" font-family="sans-serif" font-size="14" lengthAdjust="spacing" textLength="163" x="1411" y="502.2994">void set_mode_type(int)</text><ellipse cx="1402" cy="514.9966" fill="#84BE84" rx="3" ry="3" style="stroke:#038048;stroke-width:1.0;"/><text fill="#000000" font-family="sans-serif" font-size="14" lengthAdjust="spacing" textLength="136" x="1411" y="518.7877">int get_mode_type()</text></g><g id="elem_GMN20"><path d="M1379,585.74 L1379,641.6716 A0,0 0 0 0 1379,641.6716 L1730,641.6716 A0,0 0 0 0 1730,641.6716 L1730,595.74 L1720,585.74 L1556.63,585.74 L1548.6,525.93 L1548.63,585.74 L1379,585.74 A0,0 0 0 0 1379,585.74 " fill="#FEFFDD" style="stroke:#181818;stroke-width:0.5;"/><path d="M1720,585.74 L1720,595.74 L1730,595.74 L1720,585.74 " fill="#FEFFDD" style="stroke:#181818;stroke-width:0.5;"/><text fill="#000000" font-family="sans-serif" font-size="13" lengthAdjust="spacing" textLength="171" x="1385" y="603.3084">Pause menu with 3 buttons</text><text fill="#000000" font-family="sans-serif" font-size="13" lengthAdjust="spacing" textLength="301" x="1385" y="618.6189">All buttons centered in the middle of the screen</text><text fill="#000000" font-family="sans-serif" font-size="13" lengthAdjust="spacing" textLength="330" x="1385" y="633.9295">Used during gameplay for resume/save/exit options</text></g><!--class GameOver--><g id="elem_GameOver"><rect codeLine="131" fill="#F1F1F1" height="196.3945" id="GameOver" rx="2.5" ry="2.5" style="stroke:#181818;stroke-width:0.5;" width="293" x="1731" y="263.39"/><ellipse cx="1837.75" cy="279.39" fill="#ADD1B2" rx="11" ry="11" style="stroke:#181818;stroke-width:1.0;"/><path d="M1840.2231,285.5331 Q1839.6421,285.8319 1839.0029,285.9813 Q1838.3638,286.1307 1837.6582,286.1307 Q1835.1514,286.1307 1833.8315,284.4789 Q1832.5117,282.827 1832.5117,279.7059 Q1832.5117,276.5765 1833.8315,274.9247 Q1835.1514,273.2728 1837.6582,273.2728 Q1838.3638,273.2728 1839.0112,273.4222 Q1839.6587,273.5716 1840.2231,273.8705 L1840.2231,276.5931 Q1839.5923,276.0121 1838.9988,275.7423 Q1838.4053,275.4725 1837.7744,275.4725 Q1836.4297,275.4725 1835.7449,276.5392 Q1835.0601,277.6058 1835.0601,279.7059 Q1835.0601,281.7977 1835.7449,282.8644 Q1836.4297,283.931 1837.7744,283.931 Q1838.4053,283.931 1838.9988,283.6612 Q1839.5923,283.3915 1840.2231,282.8104 Z " fill="#000000"/><text fill="#000000" font-family="sans-serif" font-size="14" lengthAdjust="spacing" textLength="71" x="1858.25" y="284.681">GameOver</text><line style="stroke:#181818;stroke-width:0.5;" x1="1732" x2="2023" y1="295.39" y2="295.39"/><rect fill="none" height="6" style="stroke:#C82930;stroke-width:1.0;" width="6" x="1739" y="306.1341"/><text fill="#000000" font-family="sans-serif" font-size="14" lengthAdjust="spacing" textLength="150" x="1751" y="312.9252">SDL_Rect button_back</text><rect fill="none" height="6" style="stroke:#C82930;stroke-width:1.0;" width="6" x="1739" y="322.6224"/><text fill="#000000" font-family="sans-serif" font-size="14" lengthAdjust="spacing" textLength="92" x="1751" y="329.4134">bool go_back</text><rect fill="none" height="6" style="stroke:#C82930;stroke-width:1.0;" width="6" x="1739" y="339.1107"/><text fill="#000000" font-family="sans-serif" font-size="14" lengthAdjust="spacing" textLength="165" x="1751" y="345.9017">std::string winner_name</text><line style="stroke:#181818;stroke-width:0.5;" x1="1732" x2="2023" y1="352.8548" y2="352.8548"/><ellipse cx="1742" cy="366.599" fill="#84BE84" rx="3" ry="3" style="stroke:#038048;stroke-width:1.0;"/><text fill="#000000" font-family="sans-serif" font-size="14" lengthAdjust="spacing" textLength="262" x="1751" y="370.39">GameOver(SDL_Renderer*, TTF_Font*)</text><ellipse cx="1742" cy="383.0873" fill="#84BE84" rx="3" ry="3" style="stroke:#038048;stroke-width:1.0;"/><text fill="#000000" font-family="sans-serif" font-size="14" lengthAdjust="spacing" textLength="90" x="1751" y="386.8783">~GameOver()</text><ellipse cx="1742" cy="399.5755" fill="#84BE84" rx="3" ry="3" style="stroke:#038048;stroke-width:1.0;"/><text fill="#000000" font-family="sans-serif" font-size="14" lengthAdjust="spacing" textLength="267" x="1751" y="403.3666">bool action_handler(const SDL_Event&amp;)</text><ellipse cx="1742" cy="416.0638" fill="#84BE84" rx="3" ry="3" style="stroke:#038048;stroke-width:1.0;"/><text fill="#000000" font-family="sans-serif" font-size="14" lengthAdjust="spacing" textLength="131" x="1751" y="419.8548">bool get_go_back()</text><ellipse cx="1742" cy="432.5521" fill="#84BE84" rx="3" ry="3" style="stroke:#038048;stroke-width:1.0;"/><text fill="#000000" font-family="sans-serif" font-size="14" lengthAdjust="spacing" textLength="237" x="1751" y="436.3431">void set_winner(const std::string&amp;)</text><ellipse cx="1742" cy="449.0404" fill="#84BE84" rx="3" ry="3" style="stroke:#038048;stroke-width:1.0;"/><text fill="#000000" font-family="sans-serif" font-size="14" lengthAdjust="spacing" textLength="138" x="1751" y="452.8314">void render_object()</text></g><g id="elem_GMN24"><path d="M1765,593.39 L1765,634.0111 A0,0 0 0 0 1765,634.0111 L2016,634.0111 A0,0 0 0 0 2016,634.0111 L2016,603.39 L2006,593.39 L1893.47,593.39 L1882.56,460.01 L1885.47,593.39 L1765,593.39 A0,0 0 0 0 1765,593.39 " fill="#FEFFDD" style="stroke:#181818;stroke-width:0.5;"/><path d="M2006,593.39 L2006,603.39 L2016,603.39 L2006,593.39 " fill="#FEFFDD" style="stroke:#181818;stroke-width:0.5;"/><text fill="#000000" font-family="sans-serif" font-size="13" lengthAdjust="spacing" textLength="214" x="1771" y="610.9584">Game over screen showing winner</text><text fill="#000000" font-family="sans-serif" font-size="13" lengthAdjust="spacing" textLength="230" x="1771" y="626.2689">and providing return to menu option</text></g><!--link Page Base to page_2b_1t--><g id="link_Page Base_page_2b_1t"><path codeLine="149" d="M868.6431,74.7878 C729.7731,80.0978 504.88,102.95 322.5,197.44 C305.23,206.39 302.6349,206.4996 286.9549,218.9996 " fill="none" id="Page Base-page_2b_1t" style="stroke:#181818;stroke-width:1.0;stroke-dasharray:7.0,7.0;"/><polygon fill="none" points="886.63,74.1,868.4139,68.7921,868.8724,80.7834,886.63,74.1" style="stroke:#181818;stroke-width:1.0;"/><polygon fill="none" points="272.88,230.22,290.695,223.6912,283.2147,214.308,272.88,230.22" style="stroke:#181818;stroke-width:1.0;"/></g><!--link Page Base to page_3b_1t--><g id="link_Page Base_page_3b_1t"><path codeLine="150" d="M869.3949,105.0781 C799.4949,125.2381 726.24,152.21 654.5,197.44 C635.87,209.18 631.2032,211.4748 614.0632,226.4548 " fill="none" id="Page Base-page_3b_1t" style="stroke:#181818;stroke-width:1.0;stroke-dasharray:7.0,7.0;"/><polygon fill="none" points="886.69,100.09,867.7322,99.3131,871.0576,110.8431,886.69,100.09" style="stroke:#181818;stroke-width:1.0;"/><polygon fill="none" points="600.51,238.3,618.0117,230.9725,610.1148,221.937,600.51,238.3" style="stroke:#181818;stroke-width:1.0;"/></g><!--link Page Base to page_4b_1t--><g id="link_Page Base_page_4b_1t"><path codeLine="151" d="M947.601,153.0612 C930.831,180.4512 929.442,182.7206 909.792,214.8006 " fill="none" id="Page Base-page_4b_1t" style="stroke:#181818;stroke-width:1.0;stroke-dasharray:7.0,7.0;"/><polygon fill="none" points="957,137.71,942.4839,149.9282,952.718,156.1942,957,137.71" style="stroke:#181818;stroke-width:1.0;"/><polygon fill="none" points="900.39,230.15,914.9084,217.9346,904.6755,211.6666,900.39,230.15" style="stroke:#181818;stroke-width:1.0;"/></g><!--link Page Base to page_3b_0t--><g id="link_Page Base_page_3b_0t"><path codeLine="152" d="M1045.3992,153.061 C1057.8592,173.411 1053.4232,166.1474 1068.0332,190.0174 " fill="none" id="Page Base-page_3b_0t" style="stroke:#181818;stroke-width:1.0;stroke-dasharray:7.0,7.0;"/><polygon fill="none" points="1036,137.71,1040.2822,156.1941,1050.5162,149.928,1036,137.71" style="stroke:#181818;stroke-width:1.0;"/><polygon fill="none" points="1077.43,205.37,1073.1508,186.8852,1062.9157,193.1497,1077.43,205.37" style="stroke:#181818;stroke-width:1.0;"/></g><!--link Page Base to page_3b--><g id="link_Page Base_page_3b"><path codeLine="153" d="M1123.8349,103.0454 C1198.3249,123.0354 1279.75,150.79 1358.5,197.44 C1369.35,203.87 1365.5413,200.4725 1376.0913,208.1125 " fill="none" id="Page Base-page_3b" style="stroke:#181818;stroke-width:1.0;stroke-dasharray:7.0,7.0;"/><polygon fill="none" points="1106.45,98.38,1122.2798,108.8403,1125.39,97.2504,1106.45,98.38" style="stroke:#181818;stroke-width:1.0;"/><polygon fill="none" points="1390.67,218.67,1379.6104,203.2529,1372.5721,212.9721,1390.67,218.67" style="stroke:#181818;stroke-width:1.0;"/></g><!--link Page Base to GameOver--><g id="link_Page Base_GameOver"><path codeLine="154" d="M1124.3006,74.2224 C1268.2506,78.8824 1507.27,100.97 1701.5,197.44 C1734.34,213.75 1752.2717,225.8055 1778.8917,250.7755 " fill="none" id="Page Base-GameOver" style="stroke:#181818;stroke-width:1.0;stroke-dasharray:7.0,7.0;"/><polygon fill="none" points="1106.31,73.64,1124.1064,80.2193,1124.4947,68.2255,1106.31,73.64" style="stroke:#181818;stroke-width:1.0;"/><polygon fill="none" points="1792.02,263.09,1782.9966,246.3994,1774.7869,255.1515,1792.02,263.09" style="stroke:#181818;stroke-width:1.0;"/></g><!--SRC=[hPVTZzCu4C3V-rUCzYGeIu7kfa-h4z9onvwGZWEnotFa9DEj8R4hssbPmTtVVZDslfecRVbuIsR6dgzVnivZ-4CNXLOWd3CoAHrQM6e38izXBUxHJaHYdH6fWpGNriBPUvB2As7n3BvE07w3sp__ZZ-Woj2WEGTJFNdLtTrDVAELEuUrpcMAZVqTVd6bmNDmuI4kK9MaVLgjZtNo2LCtVU9bv5rg5Q-4od8q9FntCddimuila_Z2NS4_sj7sO5E3g60htGekWR9nMbcWPN01JheS9o69TgdFuLcL0oKPriGvEXlVwq5T8jBFNf5edOEY1EADn6qhkjUjZLGEb0ykbfbFflKztQdShArMoFg_ZcMGXDtHnOtJlg9oNOdPkJUl0wZa6oqpi3iACkteXfhWVVGwaL9vdI_GwmqgzyXtXZP5igPQ5Q2NdNnfcvFx1F3HOkPHbEJ3bDvniE6ebp8LNZB18C46YIWWyLPc52CmMC5HT0o8g0C4byvYJkbZ5eTrZRpG6SRkOOs3U5mCIYy7fL5BH7Go4L67YBh3JQXwpLNvhfOTx7hjeCcvZr2hy0YDz3-g-dzYKphTJtWIyVv0BzTl89DBwdsPkuUgFvJSFWEBYW4AhZNhk5qSOs7HOy6dwR_WwYF7Bv8-Dr4CGo2aByoWpcrrlCx50nexRcITDWzE5ZXkiYpLk9B3Q-5Qd0pNeZzkVWwVPZ0rvHhYoW-c4N8MDJdVrqg06-AbibVtaA3RyiYvVaE9RpLK3PYHuMrTwXaZTbCgt-p1kJ9dfeHKem0hFJXMvZLAlXxM2SCpVDloqoBLTDIBgDmKVeazIoiszAqlPOvSMEli24Favn0T-uhQtyvScfyyb-Q_11rYOmR1shhiweh6FxNmqGoQGwh1ogU8sI1jNCc-OgzmVOETWlTdtT3gyO4tzzYUH4j5AoV3i0gwLMo18vZL10In3o0eQ0qjuKHPvRI7zj18Z98hU2zAEpXzTtdjmbfyG5jssIjkAOZEw-kQfHyuCglDNxN6hOhT32a61roKd8Zez9VSSXhBsvKkyonaCTsJSmh7q1mxICSEtr7UQCLuUm6kwHYjsKif2ofJHWx0hMX5E9LfBtuBbxFw3CvA_lWySpmp_PbiVBulcCONd0-4MyVkNUmlMl5kWwRwRtZ62aBup8Txnh5GscP3_njM5Z8N1jQbMMjRpyvc_TSJRk7TAtTdPb0PbA8Mgp0zdpQR7gEbiViXAlPluasNGq3J_UbsWClzbjVXqHf-1CrrgYxLTgMtRUfamPDcRVH6PYmsIFzRoWyCvYHqRgTnnEwMo5YXaKuekgrpj2ckNIdoMUXYoizCJqfaFfbq_mb___Ry-RUNtLl_c3Owg5qSMpi_f1rIDKNx7m00]--></g></svg>