<?xml version="1.0" encoding="us-ascii" standalone="no"?><svg xmlns="http://www.w3.org/2000/svg" xmlns:xlink="http://www.w3.org/1999/xlink" contentStyleType="text/css" height="675px" preserveAspectRatio="none" style="width:1457px;height:675px;background:#FFFFFF;" version="1.1" viewBox="0 0 1457 675" width="1457px" zoomAndPan="magnify"><defs/><g><!--class Paddle--><g id="elem_Paddle"><rect codeLine="3" fill="#F1F1F1" height="48" id="Paddle" rx="2.5" ry="2.5" style="stroke:#181818;stroke-width:0.5;" width="78" x="107.88" y="620.23"/><ellipse cx="122.88" cy="636.23" fill="#ADD1B2" rx="11" ry="11" style="stroke:#181818;stroke-width:1.0;"/><path d="M125.3531,642.3731 Q124.7721,642.6719 124.1329,642.8213 Q123.4938,642.9707 122.7882,642.9707 Q120.2814,642.9707 118.9615,641.3189 Q117.6417,639.667 117.6417,636.5459 Q117.6417,633.4165 118.9615,631.7647 Q120.2814,630.1128 122.7882,630.1128 Q123.4938,630.1128 124.1412,630.2622 Q124.7887,630.4116 125.3531,630.7105 L125.3531,633.4331 Q124.7223,632.8521 124.1288,632.5823 Q123.5353,632.3125 122.9044,632.3125 Q121.5597,632.3125 120.8749,633.3792 Q120.1901,634.4458 120.1901,636.5459 Q120.1901,638.6377 120.8749,639.7044 Q121.5597,640.771 122.9044,640.771 Q123.5353,640.771 124.1288,640.5012 Q124.7223,640.2315 125.3531,639.6504 Z " fill="#000000"/><text fill="#000000" font-family="sans-serif" font-size="14" lengthAdjust="spacing" textLength="46" x="136.88" y="641.521">Paddle</text><line style="stroke:#181818;stroke-width:0.5;" x1="108.88" x2="184.88" y1="652.23" y2="652.23"/><line style="stroke:#181818;stroke-width:0.5;" x1="108.88" x2="184.88" y1="660.23" y2="660.23"/></g><!--class BallBase--><g id="elem_BallBase"><rect codeLine="7" fill="#F1F1F1" height="48" id="BallBase" rx="2.5" ry="2.5" style="stroke:#181818;stroke-width:0.5;" width="87" x="974.38" y="620.23"/><ellipse cx="989.38" cy="636.23" fill="#ADD1B2" rx="11" ry="11" style="stroke:#181818;stroke-width:1.0;"/><path d="M991.8531,642.3731 Q991.2721,642.6719 990.6329,642.8213 Q989.9938,642.9707 989.2882,642.9707 Q986.7814,642.9707 985.4615,641.3189 Q984.1417,639.667 984.1417,636.5459 Q984.1417,633.4165 985.4615,631.7647 Q986.7814,630.1128 989.2882,630.1128 Q989.9938,630.1128 990.6412,630.2622 Q991.2887,630.4116 991.8531,630.7105 L991.8531,633.4331 Q991.2223,632.8521 990.6288,632.5823 Q990.0353,632.3125 989.4044,632.3125 Q988.0597,632.3125 987.3749,633.3792 Q986.6901,634.4458 986.6901,636.5459 Q986.6901,638.6377 987.3749,639.7044 Q988.0597,640.771 989.4044,640.771 Q990.0353,640.771 990.6288,640.5012 Q991.2223,640.2315 991.8531,639.6504 Z " fill="#000000"/><text fill="#000000" font-family="sans-serif" font-size="14" lengthAdjust="spacing" textLength="55" x="1003.38" y="641.521">BallBase</text><line style="stroke:#181818;stroke-width:0.5;" x1="975.38" x2="1060.38" y1="652.23" y2="652.23"/><line style="stroke:#181818;stroke-width:0.5;" x1="975.38" x2="1060.38" y1="660.23" y2="660.23"/></g><!--class Power--><g id="elem_Power"><rect codeLine="12" fill="#F1F1F1" height="311.8125" id="Power" rx="2.5" ry="2.5" style="stroke:#181818;stroke-width:0.5;" width="734" x="452.88" y="7"/><ellipse cx="794.63" cy="23" fill="#ADD1B2" rx="11" ry="11" style="stroke:#181818;stroke-width:1.0;"/><path d="M797.1031,29.1431 Q796.5221,29.4419 795.8829,29.5913 Q795.2438,29.7407 794.5382,29.7407 Q792.0314,29.7407 790.7115,28.0889 Q789.3917,26.437 789.3917,23.3159 Q789.3917,20.1865 790.7115,18.5347 Q792.0314,16.8828 794.5382,16.8828 Q795.2438,16.8828 795.8912,17.0322 Q796.5387,17.1816 797.1031,17.4805 L797.1031,20.2031 Q796.4723,19.6221 795.8788,19.3523 Q795.2853,19.0825 794.6544,19.0825 Q793.3097,19.0825 792.6249,20.1492 Q791.9401,21.2158 791.9401,23.3159 Q791.9401,25.4077 792.6249,26.4744 Q793.3097,27.541 794.6544,27.541 Q795.2853,27.541 795.8788,27.2712 Q796.4723,27.0015 797.1031,26.4204 Z " fill="#000000"/><text fill="#000000" font-family="sans-serif" font-size="14" lengthAdjust="spacing" textLength="42" x="815.13" y="28.291">Power</text><line style="stroke:#181818;stroke-width:0.5;" x1="453.88" x2="1185.88" y1="39" y2="39"/><polygon fill="none" points="463.88,47.7441,467.88,51.7441,463.88,55.7441,459.88,51.7441" style="stroke:#B38D22;stroke-width:1.0;"/><text fill="#000000" font-family="sans-serif" font-size="14" lengthAdjust="spacing" textLength="44" x="472.88" y="56.5352">float x</text><polygon fill="none" points="463.88,64.2324,467.88,68.2324,463.88,72.2324,459.88,68.2324" style="stroke:#B38D22;stroke-width:1.0;"/><text fill="#000000" font-family="sans-serif" font-size="14" lengthAdjust="spacing" textLength="42" x="472.88" y="73.0234">float y</text><polygon fill="none" points="463.88,80.7207,467.88,84.7207,463.88,88.7207,459.88,84.7207" style="stroke:#B38D22;stroke-width:1.0;"/><text fill="#000000" font-family="sans-serif" font-size="14" lengthAdjust="spacing" textLength="63" x="472.88" y="89.5117">bool play</text><polygon fill="none" points="463.88,97.209,467.88,101.209,463.88,105.209,459.88,101.209" style="stroke:#B38D22;stroke-width:1.0;"/><text fill="#000000" font-family="sans-serif" font-size="14" lengthAdjust="spacing" textLength="112" x="472.88" y="106">int width, height</text><polygon fill="none" points="463.88,113.6973,467.88,117.6973,463.88,121.6973,459.88,117.6973" style="stroke:#B38D22;stroke-width:1.0;"/><text fill="#000000" font-family="sans-serif" font-size="14" lengthAdjust="spacing" textLength="76" x="472.88" y="122.4883">float speed</text><polygon fill="none" points="463.88,130.1855,467.88,134.1855,463.88,138.1855,459.88,134.1855" style="stroke:#B38D22;stroke-width:1.0;"/><text fill="#000000" font-family="sans-serif" font-size="14" lengthAdjust="spacing" textLength="139" x="472.88" y="138.9766">float duration_effect</text><polygon fill="none" points="463.88,146.6738,467.88,150.6738,463.88,154.6738,459.88,150.6738" style="stroke:#B38D22;stroke-width:1.0;"/><text fill="#000000" font-family="sans-serif" font-size="14" lengthAdjust="spacing" textLength="137" x="472.88" y="155.4648">bool effect_is_active</text><polygon fill="none" points="463.88,163.1621,467.88,167.1621,463.88,171.1621,459.88,167.1621" style="stroke:#B38D22;stroke-width:1.0;"/><text fill="#000000" font-family="sans-serif" font-size="14" lengthAdjust="spacing" textLength="109" x="472.88" y="171.9531">SDL_Color color</text><polygon fill="none" points="463.88,179.6504,467.88,183.6504,463.88,187.6504,459.88,183.6504" style="stroke:#B38D22;stroke-width:1.0;"/><text fill="#000000" font-family="sans-serif" font-size="14" lengthAdjust="spacing" textLength="92" x="472.88" y="188.4414">bool is_active</text><line style="stroke:#181818;stroke-width:0.5;" x1="453.88" x2="1185.88" y1="195.3945" y2="195.3945"/><ellipse cx="463.88" cy="209.1387" fill="#84BE84" rx="3" ry="3" style="stroke:#038048;stroke-width:1.0;"/><text fill="#000000" font-family="sans-serif" font-size="14" lengthAdjust="spacing" textLength="290" x="472.88" y="212.9297">Power(int screen_width, int screen_height)</text><ellipse cx="463.88" cy="225.627" fill="#84BE84" rx="3" ry="3" style="stroke:#038048;stroke-width:1.0;"/><text fill="#000000" font-family="sans-serif" font-size="14" lengthAdjust="spacing" textLength="708" x="472.88" y="229.418">virtual void update(float time, Paddle *racket1, Paddle *racket2, SDL_Renderer *renderer, BallBase *ball)</text><ellipse cx="463.88" cy="242.1152" fill="#84BE84" rx="3" ry="3" style="stroke:#038048;stroke-width:1.0;"/><text fill="#000000" font-family="sans-serif" font-size="14" lengthAdjust="spacing" textLength="302" x="472.88" y="245.9063">virtual void render(SDL_Renderer *renderer)</text><ellipse cx="463.88" cy="258.6035" fill="#84BE84" rx="3" ry="3" style="stroke:#038048;stroke-width:1.0;"/><text fill="#000000" font-family="sans-serif" font-size="14" lengthAdjust="spacing" textLength="270" x="472.88" y="262.3945">bool collision(BallBase *ball_type) const</text><ellipse cx="463.88" cy="275.0918" fill="#84BE84" rx="3" ry="3" style="stroke:#038048;stroke-width:1.0;"/><text fill="#000000" font-family="sans-serif" font-size="14" lengthAdjust="spacing" textLength="236" x="472.88" y="278.8828">virtual void reset(int screen_width)</text><ellipse cx="463.88" cy="291.5801" fill="#84BE84" rx="3" ry="3" style="stroke:#038048;stroke-width:1.0;"/><text fill="#000000" font-family="sans-serif" font-size="14" lengthAdjust="spacing" textLength="201" x="472.88" y="295.3711">void set_is_active(bool active)</text><ellipse cx="463.88" cy="308.0684" fill="#84BE84" rx="3" ry="3" style="stroke:#038048;stroke-width:1.0;"/><text fill="#000000" font-family="sans-serif" font-size="14" lengthAdjust="spacing" textLength="246" x="472.88" y="311.8594">void set_effect_is_active(bool active)</text></g><!--class InvisiblePower--><g id="elem_InvisiblePower"><rect codeLine="33" fill="#F1F1F1" height="163.418" id="InvisiblePower" rx="2.5" ry="2.5" style="stroke:#181818;stroke-width:0.5;" width="454" x="996.88" y="379.81"/><ellipse cx="1170.63" cy="395.81" fill="#ADD1B2" rx="11" ry="11" style="stroke:#181818;stroke-width:1.0;"/><path d="M1173.1031,401.9531 Q1172.5221,402.2519 1171.8829,402.4013 Q1171.2438,402.5507 1170.5382,402.5507 Q1168.0314,402.5507 1166.7115,400.8989 Q1165.3917,399.247 1165.3917,396.1259 Q1165.3917,392.9965 1166.7115,391.3447 Q1168.0314,389.6928 1170.5382,389.6928 Q1171.2438,389.6928 1171.8912,389.8422 Q1172.5387,389.9916 1173.1031,390.2905 L1173.1031,393.0131 Q1172.4723,392.4321 1171.8788,392.1623 Q1171.2853,391.8925 1170.6544,391.8925 Q1169.3097,391.8925 1168.6249,392.9592 Q1167.9401,394.0258 1167.9401,396.1259 Q1167.9401,398.2177 1168.6249,399.2844 Q1169.3097,400.351 1170.6544,400.351 Q1171.2853,400.351 1171.8788,400.0812 Q1172.4723,399.8115 1173.1031,399.2304 Z " fill="#000000"/><text fill="#000000" font-family="sans-serif" font-size="14" lengthAdjust="spacing" textLength="98" x="1191.13" y="401.101">InvisiblePower</text><line style="stroke:#181818;stroke-width:0.5;" x1="997.88" x2="1449.88" y1="411.81" y2="411.81"/><rect fill="none" height="6" style="stroke:#C82930;stroke-width:1.0;" width="6" x="1004.88" y="422.5541"/><text fill="#000000" font-family="sans-serif" font-size="14" lengthAdjust="spacing" textLength="79" x="1016.88" y="429.3452">float repeat</text><rect fill="none" height="6" style="stroke:#C82930;stroke-width:1.0;" width="6" x="1004.88" y="439.0424"/><text fill="#000000" font-family="sans-serif" font-size="14" lengthAdjust="spacing" textLength="119" x="1016.88" y="445.8334">bool initialisation</text><line style="stroke:#181818;stroke-width:0.5;" x1="997.88" x2="1449.88" y1="452.7866" y2="452.7866"/><ellipse cx="1007.88" cy="466.5307" fill="#84BE84" rx="3" ry="3" style="stroke:#038048;stroke-width:1.0;"/><text fill="#000000" font-family="sans-serif" font-size="14" lengthAdjust="spacing" textLength="346" x="1016.88" y="470.3217">InvisiblePower(int screen_width, int screen_height)</text><ellipse cx="1007.88" cy="483.019" fill="#84BE84" rx="3" ry="3" style="stroke:#038048;stroke-width:1.0;"/><text fill="#000000" font-family="sans-serif" font-size="14" lengthAdjust="spacing" textLength="428" x="1016.88" y="486.81">void update(float time, BallBase *Ball, SDL_Renderer *renderer)</text><ellipse cx="1007.88" cy="499.5073" fill="#84BE84" rx="3" ry="3" style="stroke:#038048;stroke-width:1.0;"/><text fill="#000000" font-family="sans-serif" font-size="14" lengthAdjust="spacing" textLength="316" x="1016.88" y="503.2983">void render(SDL_Renderer *renderer) override</text><ellipse cx="1007.88" cy="515.9955" fill="#84BE84" rx="3" ry="3" style="stroke:#038048;stroke-width:1.0;"/><text fill="#000000" font-family="sans-serif" font-size="14" lengthAdjust="spacing" textLength="250" x="1016.88" y="519.7866">void reset(int screen_width) override</text><ellipse cx="1007.88" cy="532.4838" fill="#84BE84" rx="3" ry="3" style="stroke:#038048;stroke-width:1.0;"/><text fill="#000000" font-family="sans-serif" font-size="14" lengthAdjust="spacing" textLength="211" x="1016.88" y="536.2748">void set_initialisation(bool init)</text></g><!--class InversiblePower--><g id="elem_InversiblePower"><rect codeLine="44" fill="#F1F1F1" height="146.9297" id="InversiblePower" rx="2.5" ry="2.5" style="stroke:#181818;stroke-width:0.5;" width="748" x="112.88" y="388.06"/><ellipse cx="428.63" cy="404.06" fill="#ADD1B2" rx="11" ry="11" style="stroke:#181818;stroke-width:1.0;"/><path d="M431.1031,410.2031 Q430.5221,410.5019 429.8829,410.6513 Q429.2438,410.8007 428.5382,410.8007 Q426.0314,410.8007 424.7115,409.1489 Q423.3917,407.497 423.3917,404.3759 Q423.3917,401.2465 424.7115,399.5947 Q426.0314,397.9428 428.5382,397.9428 Q429.2438,397.9428 429.8912,398.0922 Q430.5387,398.2416 431.1031,398.5405 L431.1031,401.2631 Q430.4723,400.6821 429.8788,400.4123 Q429.2853,400.1425 428.6544,400.1425 Q427.3097,400.1425 426.6249,401.2092 Q425.9401,402.2758 425.9401,404.3759 Q425.9401,406.4677 426.6249,407.5344 Q427.3097,408.601 428.6544,408.601 Q429.2853,408.601 429.8788,408.3312 Q430.4723,408.0615 431.1031,407.4804 Z " fill="#000000"/><text fill="#000000" font-family="sans-serif" font-size="14" lengthAdjust="spacing" textLength="108" x="449.13" y="409.351">InversiblePower</text><line style="stroke:#181818;stroke-width:0.5;" x1="113.88" x2="859.88" y1="420.06" y2="420.06"/><rect fill="none" height="6" style="stroke:#C82930;stroke-width:1.0;" width="6" x="120.88" y="430.8041"/><text fill="#000000" font-family="sans-serif" font-size="14" lengthAdjust="spacing" textLength="138" x="132.88" y="437.5952">bool inverse_paddle</text><rect fill="none" height="6" style="stroke:#C82930;stroke-width:1.0;" width="6" x="120.88" y="447.2924"/><text fill="#000000" font-family="sans-serif" font-size="14" lengthAdjust="spacing" textLength="79" x="132.88" y="454.0834">float repeat</text><line style="stroke:#181818;stroke-width:0.5;" x1="113.88" x2="859.88" y1="461.0366" y2="461.0366"/><ellipse cx="123.88" cy="474.7807" fill="#84BE84" rx="3" ry="3" style="stroke:#038048;stroke-width:1.0;"/><text fill="#000000" font-family="sans-serif" font-size="14" lengthAdjust="spacing" textLength="356" x="132.88" y="478.5717">InversiblePower(int screen_width, int screen_height)</text><ellipse cx="123.88" cy="491.269" fill="#84BE84" rx="3" ry="3" style="stroke:#038048;stroke-width:1.0;"/><text fill="#000000" font-family="sans-serif" font-size="14" lengthAdjust="spacing" textLength="722" x="132.88" y="495.06">void update(float time, Paddle* racket1, Paddle* racket2, SDL_Renderer* renderer, BallBase *ball) override</text><ellipse cx="123.88" cy="507.7573" fill="#84BE84" rx="3" ry="3" style="stroke:#038048;stroke-width:1.0;"/><text fill="#000000" font-family="sans-serif" font-size="14" lengthAdjust="spacing" textLength="316" x="132.88" y="511.5483">void render(SDL_Renderer* renderer) override</text><ellipse cx="123.88" cy="524.2455" fill="#84BE84" rx="3" ry="3" style="stroke:#038048;stroke-width:1.0;"/><text fill="#000000" font-family="sans-serif" font-size="14" lengthAdjust="spacing" textLength="250" x="132.88" y="528.0366">void reset(int screen_width) override</text></g><!--reverse link Power to InvisiblePower--><g id="link_Power_InvisiblePower"><path codeLine="55" d="M1045.858,329.8145 C1074.208,350.6345 1087.8,360.61 1113.41,379.41 " fill="none" id="Power-backto-InvisiblePower" style="stroke:#181818;stroke-width:1.0;"/><polygon fill="none" points="1031.35,319.16,1042.3065,334.6505,1049.4095,324.9785,1031.35,319.16" style="stroke:#181818;stroke-width:1.0;"/></g><!--reverse link Power to InversiblePower--><g id="link_Power_InversiblePower"><path codeLine="56" d="M632.139,331.1325 C605.229,355.1025 592.04,366.86 568.49,387.83 " fill="none" id="Power-backto-InversiblePower" style="stroke:#181818;stroke-width:1.0;"/><polygon fill="none" points="645.58,319.16,628.1482,326.6522,636.1299,335.6128,645.58,319.16" style="stroke:#181818;stroke-width:1.0;"/></g><!--link Power to BallBase--><g id="link_Power_BallBase"><path codeLine="59" d="M861.35,319.29 C882.84,389.56 912.14,472.52 947.88,543.23 C962.04,571.22 979.5108,595.5539 994.8708,615.0839 " fill="none" id="Power-to-BallBase" style="stroke:#181818;stroke-width:1.0;"/><polygon fill="#181818" points="998.58,619.8,996.1603,610.253,995.489,615.8699,989.8721,615.1986,998.58,619.8" style="stroke:#181818;stroke-width:1.0;"/><text fill="#000000" font-family="sans-serif" font-size="13" lengthAdjust="spacing" textLength="29" x="948.88" y="466.5884">uses</text></g><!--link Power to Paddle--><g id="link_Power_Paddle"><path codeLine="60" d="M452.53,223.42 C280.15,259.59 101.31,311.98 49.88,379.81 C6,437.69 22.6,475.92 49.88,543.23 C62.7,574.84 86.1193,598.2313 108.7993,616.2213 " fill="none" id="Power-to-Paddle" style="stroke:#181818;stroke-width:1.0;"/><polygon fill="#181818" points="113.5,619.95,108.9347,611.2232,109.5827,616.8428,103.9631,617.4908,113.5,619.95" style="stroke:#181818;stroke-width:1.0;"/><text fill="#000000" font-family="sans-serif" font-size="13" lengthAdjust="spacing" textLength="43" x="50.88" y="466.5884">affects</text></g><!--link InvisiblePower to BallBase--><g id="link_InvisiblePower_BallBase"><path codeLine="61" d="M1131.43,543.63 C1099.77,571.4 1071.2808,596.3937 1049.0708,615.8737 " fill="none" id="InvisiblePower-to-BallBase" style="stroke:#181818;stroke-width:1.0;"/><polygon fill="#181818" points="1044.56,619.83,1053.9638,616.9027,1048.319,616.533,1048.6886,610.8883,1044.56,619.83" style="stroke:#181818;stroke-width:1.0;"/><text fill="#000000" font-family="sans-serif" font-size="13" lengthAdjust="spacing" textLength="101" x="1097.38" y="586.7984">affects visibility</text></g><!--link InversiblePower to Paddle--><g id="link_InversiblePower_Paddle"><path codeLine="62" d="M350.06,535.24 C291.02,566.63 231.7081,598.144 191.5581,619.484 " fill="none" id="InversiblePower-to-Paddle" style="stroke:#181818;stroke-width:1.0;"/><polygon fill="#181818" points="186.26,622.3,196.0845,621.6081,190.6751,619.9533,192.3299,614.5439,186.26,622.3" style="stroke:#181818;stroke-width:1.0;"/><text fill="#000000" font-family="sans-serif" font-size="13" lengthAdjust="spacing" textLength="99" x="277.43" y="586.7984">inverts controls</text></g><!--SRC=[fLHDRzim3BtxLn3O8KuMOzYEnR13ryk07Ohr1nYAnTJ4LCkGw6J1jly-Mh9hMtM6VG11855Fpu-Ff3Pmgpn2PPJtw85hnK0DerCLmvcuXjQUqVai8E1UQMqGlcS0ct6Zc1qTEfRhgj7mX5nRxU5iEwFXqKAD3hEVsS1mgum9dumS_VQF6JPHx7slA4eUPOL8p_WAZiPA3jzcwqjO7wmrq1eLTvAZfAUvtWixFTOym_iMKS_skdEAoJOb7ezOySGMzoNvKjoY4uQJXxlFvKThh2Zi_oVq72Q_rr5rtYlnbKDioa7GB1ArRGFyH8uxPU1aIKFNQiMOHu5CJxWVox6Jqdr5Vfi6tks3j2_OQB7JINXOxQUQx0woMlbQXERhzoC-f2WP6_9YLRwaBFdIubQE6yzhx1xvXG-3Z1uWnvF9UVXIN2UOj1vBQ6YWEtIoqR6hnxOVkkXJSnBn1uDJEnL32pXiKN48n5esnAGarz0OOq6N17zHsIiLdKpiLzVgD-FuVPt0dj0vqZY_i6hz2ZBKO95r_kp4TXfliK1UYzJ40TaVOTc6jbmpTpHnpl3_BiOns44o5sCWcOiTN9sBLVzU63uH_9FXeKiVQdkMDENT8rPDXNBD1CzzJQtFehNlVnH5qdB9oTp7PrgfagqeihtHOhs8RIh2aROeFao9tq3d5oV3ct83AioQpvAXIMuFA0WOCiINBEsG1Mle4S7BIy7E6f_z0W00]--></g></svg>