<?xml version="1.0" encoding="us-ascii" standalone="no"?><svg xmlns="http://www.w3.org/2000/svg" xmlns:xlink="http://www.w3.org/1999/xlink" contentStyleType="text/css" height="216px" preserveAspectRatio="none" style="width:1035px;height:216px;background:#FFFFFF;" version="1.1" viewBox="0 0 1035 216" width="1035px" zoomAndPan="magnify"><defs/><g><text fill="#000000" font-family="sans-serif" font-size="14" font-weight="bold" lengthAdjust="spacing" textLength="203" x="409" y="23.5352">SoundEffects Class Diagram</text><!--class SoundEffects--><g id="elem_SoundEffects"><rect codeLine="4" fill="#F1F1F1" height="64.4883" id="SoundEffects" rx="2.5" ry="2.5" style="stroke:#181818;stroke-width:0.5;" width="1021" x="7" y="44.4883"/><ellipse cx="468.75" cy="60.4883" fill="#ADD1B2" rx="11" ry="11" style="stroke:#181818;stroke-width:1.0;"/><path d="M471.2231,66.6313 Q470.6421,66.9302 470.0029,67.0796 Q469.3638,67.229 468.6582,67.229 Q466.1514,67.229 464.8315,65.5771 Q463.5117,63.9253 463.5117,60.8042 Q463.5117,57.6748 464.8315,56.0229 Q466.1514,54.3711 468.6582,54.3711 Q469.3638,54.3711 470.0112,54.5205 Q470.6587,54.6699 471.2231,54.9688 L471.2231,57.6914 Q470.5923,57.1104 469.9988,56.8406 Q469.4053,56.5708 468.7744,56.5708 Q467.4297,56.5708 466.7449,57.6375 Q466.0601,58.7041 466.0601,60.8042 Q466.0601,62.896 466.7449,63.9626 Q467.4297,65.0293 468.7744,65.0293 Q469.4053,65.0293 469.9988,64.7595 Q470.5923,64.4897 471.2231,63.9087 Z " fill="#000000"/><text fill="#000000" font-family="sans-serif" font-size="14" lengthAdjust="spacing" textLength="89" x="489.25" y="65.7793">SoundEffects</text><line style="stroke:#181818;stroke-width:0.5;" x1="8" x2="1027" y1="76.4883" y2="76.4883"/><line style="stroke:#181818;stroke-width:0.5;" x1="8" x2="1027" y1="84.4883" y2="84.4883"/><ellipse cx="18" cy="98.2324" fill="#84BE84" rx="3" ry="3" style="stroke:#038048;stroke-width:1.0;"/><text fill="#000000" font-family="sans-serif" font-size="14" lengthAdjust="spacing" text-decoration="underline" textLength="995" x="27" y="102.0234">change_music_track(music_file: Mix_Music*, fade_out_duration: int = 500, fade_in_duration: int = 500, volume: int = MIX_MAX_VOLUME / 3): void</text></g><g id="elem_GMN3"><path d="M382.5,168.9783 L382.5,209.5994 A0,0 0 0 0 382.5,209.5994 L652.5,209.5994 A0,0 0 0 0 652.5,209.5994 L652.5,178.9783 L642.5,168.9783 L521.5,168.9783 L517.5,109.4183 L513.5,168.9783 L382.5,168.9783 A0,0 0 0 0 382.5,168.9783 " fill="#FEFFDD" style="stroke:#181818;stroke-width:0.5;"/><path d="M642.5,168.9783 L642.5,178.9783 L652.5,178.9783 L642.5,168.9783 " fill="#FEFFDD" style="stroke:#181818;stroke-width:0.5;"/><text fill="#000000" font-family="sans-serif" font-size="13" lengthAdjust="spacing" textLength="245" x="388.5" y="186.5466">Utility class for handling sound effects</text><text fill="#000000" font-family="sans-serif" font-size="13" lengthAdjust="spacing" textLength="143" x="388.5" y="201.8572">and music in the game</text></g><!--SRC=[RKzDIqCn4BpdLypHBx0WNXvu4Dk3OF0WbTv2J3QlY_c0buqefV_TlBOU2kvfTsQMcH6MI7WhBVjL2EIauYdQMh5aEqusAUKEvvbYfz3d6higLjZjuROsZsHIg-oCJDPzNXptm946QFusUhwlRX2i9rEQ6D-c_bpo0Cw21zml5YUMy__aLuajqH-adpT6FsxC- -lBMgzmYxlBeKlOgxrIkGZXeuYKX1BEqlViQ-78yeDZjL0czFm-SXvHPoNeLBHhEu53bsuBsH96cqXHHsSFzGi0]--></g></svg>